<svg version="1.1" id="svg2" xmlns:dc="http://purl.org/dc/elements/1.1/" xmlns:cc="http://creativecommons.org/ns#" xmlns:rdf="http://www.w3.org/1999/02/22-rdf-syntax-ns#" xmlns:svg="http://www.w3.org/2000/svg" xmlns:sodipodi="http://sodipodi.sourceforge.net/DTD/sodipodi-0.dtd" xmlns:inkscape="http://www.inkscape.org/namespaces/inkscape" inkscape:version="0.47 r22583" xmlns="http://www.w3.org/2000/svg" xmlns:xlink="http://www.w3.org/1999/xlink" x="0px" y="0px" viewBox="-451.3 38.6 1152.9 226" style="enable-background:new -451.3 38.6 1152.9 226;" xml:space="preserve">
 <style type="text/css">
  .st0{fill:#A20E37;}
	.st1{fill:#FFFFFF;}
	.st2{fill:#FBBC09;}
 </style>
 <defs>
  <inkscape:perspective inkscape:vp_z="744.09448 : 526.18109 : 1" sodipodi:type="inkscape:persp3d" inkscape:vp_y="0 : 1000 : 0" id="perspective10" inkscape:vp_x="0 : 526.18109 : 1" inkscape:persp3d-origin="372.04724 : 350.78739 : 1">
  </inkscape:perspective>
  <inkscape:perspective inkscape:vp_z="1 : 0.5 : 1" sodipodi:type="inkscape:persp3d" inkscape:vp_y="0 : 1000 : 0" id="perspective2824" inkscape:vp_x="0 : 0.5 : 1" inkscape:persp3d-origin="0.5 : 0.33333333 : 1">
  </inkscape:perspective>
 </defs>
 <sodipodi:namedview showgrid="false" inkscape:cy="12.895388" inkscape:cx="87.551962" inkscape:zoom="4.1179688" borderopacity="1.0" bordercolor="#666666" pagecolor="#ffffff" id="base" inkscape:pageshadow="2" inkscape:window-maximized="1" inkscape:window-y="-8" inkscape:window-x="-8" inkscape:window-height="1000" inkscape:pageopacity="0.0" inkscape:document-units="px" inkscape:current-layer="layer1" inkscape:window-width="1680">
 </sodipodi:namedview>
 <g id="layer1" transform="translate(-520.75575,-88.936485)" inkscape:label="Layer 1" inkscape:groupmode="layer">
  <path id="path2898" class="st0" d="M69.5,127.6h1152.9v226H69.5V127.6z">
  </path>
  <path id="path2900" class="st1" d="M567,295.2h5.2l-1,5.7h-5.2L567,295.2L567,295.2z">
  </path>
  <path id="path2902" class="st1" d="M576.7,295.2h5.2l-1,5.7h-5.2L576.7,295.2z">
  </path>
  <path id="path2904" class="st1" d="M586.4,295.2h5.2l-1,5.7h-5.2L586.4,295.2L586.4,295.2z">
  </path>
  <path id="path2906" class="st1" d="M603.5,301c-0.8,0.1-1.8,0.1-3,0.1c-1.8,0-3-0.3-3.6-1c-0.6-0.7-0.8-1.8-0.5-3.4l2.3-12.7h-2.5
		l0.7-3.9h2.5l1-5.6h4.9l-1,5.6h2.9l-0.7,3.9h-2.9l-2.2,11.7c-0.1,0.4,0,0.7,0.3,1c0.2,0.2,0.7,0.3,1.3,0.3l1.2-0.1L603.5,301
		L603.5,301z">
  </path>
  <path id="path2908" class="st1" d="M606.7,300.9l5.2-28.1h2.4h2.4l-1.8,9.9l0.5-0.5c1.5-1.8,3.4-2.7,5.6-2.7c2,0,3.4,0.6,4.3,1.9
		c0.9,1.3,1.1,3,0.7,5.3l-2.6,14.2H621h-2.4l2.4-12.8c0.2-1.3,0.2-2.3-0.2-2.9c-0.4-0.6-1.1-1-2.1-1c-1.3,0-2.3,0.4-3.2,1.3
		c-0.9,0.8-1.4,2-1.7,3.5l-2.2,11.9h-2.4L606.7,300.9L606.7,300.9z">
  </path>
  <path id="path2910" class="st1" d="M635.6,301.4c-2.4,0-4.3-0.6-5.6-1.9c-1.3-1.3-1.9-3.1-1.9-5.5c0-0.5,0-1.1,0.1-1.6
		c0.1-0.6,0.1-1.2,0.2-1.8c0.6-3.5,1.9-6.2,3.8-8.1c1.9-1.9,4.3-2.9,7-2.9c2.3,0,4.1,0.6,5.3,1.9c1.2,1.3,1.8,3.1,1.8,5.6
		c0,0.6,0,1.3-0.1,2c-0.1,0.7-0.2,1.4-0.3,2.2l-0.1,0.7h-12.7l0,0.3c-0.1,0.4-0.1,0.7-0.1,1.1c0,1.3,0.3,2.2,0.9,2.8
		c0.6,0.6,1.4,0.9,2.6,0.9c0.8,0,1.6-0.2,2.3-0.6c0.7-0.4,1.2-0.9,1.5-1.6h4.9c-0.9,2-2.1,3.6-3.9,4.8
		C639.5,300.8,637.7,301.4,635.6,301.4 M641.5,288.3L641.5,288.3l0-0.7c0-1.2-0.2-2.1-0.8-2.7c-0.5-0.6-1.3-0.9-2.3-0.9
		c-1.3,0-2.4,0.6-3.2,1.7c-0.5,0.7-0.9,1.5-1.3,2.6H641.5L641.5,288.3z">
  </path>
  <path id="path2912" class="st1" d="M657,300.9l3.8-20.8h2.4h2.4l-0.5,3l0.7-0.9c1.5-1.8,3.4-2.7,5.6-2.7c2,0,3.5,0.6,4.3,1.9
		c0.9,1.3,1.1,3,0.7,5.3l-2.6,14.2h-2.4h-2.4l2.4-12.8c0.2-1.3,0.2-2.3-0.2-2.9c-0.4-0.6-1.1-1-2.1-1c-1.2,0-2.3,0.4-3.2,1.3
		c-0.9,0.8-1.4,2-1.7,3.5l-2.2,11.9h-2.4L657,300.9L657,300.9z">
  </path>
  <path id="path2914" class="st1" d="M682.9,301.4c-1.5,0-2.7-0.4-3.6-1.2c-0.9-0.8-1.3-1.9-1.3-3.4c0-0.2,0-0.5,0-0.8
		c0-0.3,0.1-0.6,0.1-0.9c0.3-1.7,1.1-3.2,2.3-4.3c1.2-1.2,2.7-1.9,4.4-2.2l4.1-0.7c0.4-0.1,0.8-0.2,1.1-0.3c0.4-0.2,0.8-0.5,1-0.8
		c0.2-0.4,0.3-0.8,0.3-1.3c0-0.5-0.2-0.9-0.5-1.2c-0.4-0.4-1.2-0.6-2.3-0.6c-0.8,0-1.6,0.2-2.1,0.7c-0.6,0.5-1,1.2-1.4,2.2h-4.6
		c0.5-2.4,1.5-4.2,3.1-5.4c1.6-1.2,3.7-1.8,6.3-1.8c2.4,0,4.1,0.5,5.2,1.6c0.8,0.8,1.2,1.8,1.2,3.1c0,0.4,0,0.9-0.1,1.4l-2.1,11.3
		c-0.2,0.9-0.2,1.6-0.2,2.1c0.1,0.5,0.3,0.8,0.6,1v0l-0.1,0.7h-2.6h-2.6l0,0c-0.1-0.8-0.1-1.6,0-2.4
		C687.3,300.4,685.2,301.4,682.9,301.4 M690,293.3l0.5-2.5c-0.5,0.3-1,0.5-1.5,0.7l-2,0.4c-1.3,0.3-2.2,0.7-2.8,1.1
		c-0.6,0.4-0.9,1.1-1.1,1.9c0,0.1,0,0.1,0,0c0,0.1,0,0.3-0.1,0.4c0,0.1,0,0.2,0,0.4c0,0.6,0.2,1,0.5,1.4c0.3,0.3,0.8,0.5,1.4,0.5
		c1.5,0,2.9-0.7,4.1-2.1c0.2-0.2,0.4-0.5,0.6-1C689.8,294.1,690,293.7,690,293.3">
  </path>
  <path id="path2916" class="st1" d="M697.7,300.9l3.8-20.8h2.4h2.4l-0.6,2.9l0.7-1c1.4-1.7,3.1-2.5,5.1-2.5c1.8,0,3.1,0.6,3.9,1.7
		c0.4,0.5,0.6,1,0.7,1.7l0.7-0.9c1.3-1.7,3-2.5,4.9-2.5c2,0,3.4,0.6,4.3,1.9c0.6,0.9,0.9,1.9,0.9,3.2c0,0.6-0.1,1.3-0.2,2l-2.6,14.2
		h-2.4h-2.5l2.5-13.5c0.2-1.1,0.2-1.9-0.2-2.5c-0.3-0.5-0.9-0.8-1.8-0.8c-1.1,0-2,0.4-2.7,1.1c-0.7,0.7-1.2,1.7-1.4,3.1l-2.3,12.5
		h-2.4h-2.5l2.5-13.3c0.2-1.2,0.2-2-0.2-2.6c-0.3-0.6-1-0.8-1.8-0.8c-1.1,0-2,0.4-2.6,1.1c-0.7,0.7-1.1,1.7-1.4,3.1l-2.3,12.5h-2.4
		H697.7L697.7,300.9z">
  </path>
  <path id="path2918" class="st1" d="M736.4,301.4c-2.4,0-4.3-0.6-5.6-1.9c-1.3-1.3-1.9-3.1-1.9-5.5c0-0.5,0-1.1,0.1-1.6
		c0.1-0.6,0.1-1.2,0.2-1.8c0.6-3.5,1.9-6.2,3.8-8.1c1.9-1.9,4.2-2.9,7-2.9c2.3,0,4.1,0.6,5.3,1.9c1.2,1.3,1.8,3.1,1.8,5.6
		c0,0.6,0,1.3-0.1,2c-0.1,0.7-0.2,1.4-0.3,2.2l-0.1,0.7h-12.7l0,0.3c-0.1,0.4-0.1,0.7-0.1,1.1c0,1.3,0.3,2.2,0.9,2.8
		c0.6,0.6,1.4,0.9,2.6,0.9c0.8,0,1.6-0.2,2.3-0.6c0.7-0.4,1.2-0.9,1.4-1.6h4.9c-0.9,2-2.1,3.6-3.9,4.8
		C740.3,300.8,738.4,301.4,736.4,301.4 M742.3,288.3L742.3,288.3l0-0.7c0-1.2-0.2-2.1-0.8-2.7c-0.5-0.6-1.3-0.9-2.3-0.9
		c-1.3,0-2.4,0.6-3.2,1.7c-0.5,0.7-0.9,1.5-1.3,2.6H742.3L742.3,288.3z">
  </path>
  <path id="path2920" class="st1" d="M778.3,280.1l-10.1,20.6c-1.9,3.8-3.3,6.3-4.4,7.3c-1,1-2.6,1.6-4.5,1.6c-0.9,0-1.7,0-2.3-0.1
		l0.8-4.4c0.1,0.1,0.4,0.1,1,0.1c1.3,0,2.2-0.3,2.7-0.9c0.3-0.4,0.7-1.2,1.2-2.5l-2.9-21.7h2.7h2.7l1.1,15.5l6.8-15.5h2.6
		L778.3,280.1L778.3,280.1z">
  </path>
  <path id="path2922" class="st1" d="M785.6,301.4c-2.4,0-4.3-0.7-5.7-2.1c-1.4-1.4-2.1-3.4-2.1-5.8c0-0.4,0-0.9,0.1-1.4
		c0.1-0.5,0.1-1,0.2-1.5c0.6-3.4,2-6.1,4-8c2.1-2,4.6-3,7.5-3c2.4,0,4.3,0.7,5.7,2.1c1.4,1.4,2.1,3.4,2.1,5.9c0,0.4,0,0.9-0.1,1.4
		c-0.1,0.5-0.1,1.1-0.2,1.6c-0.6,3.3-1.9,6-4,7.9C791,300.4,788.5,301.4,785.6,301.4 M786.4,296.8c1.5,0,2.7-0.6,3.6-1.6
		c0.9-1.1,1.6-2.7,2-4.9c0.1-0.4,0.1-0.7,0.2-1.1c0-0.4,0.1-0.7,0.1-1c0-1.3-0.3-2.3-0.9-3c-0.6-0.7-1.5-1.1-2.6-1.1
		c-1.5,0-2.7,0.6-3.6,1.7c-0.9,1.1-1.6,2.8-2,5c-0.1,0.3-0.1,0.7-0.1,1c0,0.4-0.1,0.7,0,1c0,1.3,0.3,2.3,0.9,2.9
		C784.4,296.5,785.3,296.8,786.4,296.8">
  </path>
  <path id="path2924" class="st1" d="M807.3,280.1l-2.4,12.8c-0.2,1.3-0.2,2.3,0.2,2.9c0.4,0.6,1.1,1,2.1,1c1.2,0,2.3-0.4,3.2-1.3
		c0.9-0.8,1.4-2,1.7-3.5l2.2-11.9h2.4h2.5l-3.8,20.8H813h-2.4l0.5-3c-0.2,0.3-0.4,0.6-0.7,0.9c-1.5,1.8-3.4,2.7-5.6,2.7
		c-2,0-3.4-0.7-4.3-2.1c-0.6-0.9-0.8-2.1-0.8-3.4c0-0.7,0.1-1.5,0.2-2.3l2.5-13.4h2.4L807.3,280.1L807.3,280.1z">
  </path>
  <path id="path2926" class="st1" d="M846.9,293.3L846.9,293.3c-0.8,2.5-2.1,4.5-3.9,5.9c-1.8,1.5-3.8,2.2-6.2,2.2
		c-2.2,0-3.9-0.6-5.1-1.9c-1.2-1.2-1.8-3-1.8-5.4c0-0.5,0-1.1,0.1-1.7c0.1-0.6,0.2-1.2,0.3-1.9c0.6-3.5,1.9-6.2,3.8-8.1
		c1.9-1.9,4.3-2.9,7.1-2.9c2.4,0,4.2,0.7,5.3,2.1c1,1.2,1.5,2.7,1.5,4.6l-0.1,1.3H843c0-1.2-0.3-2-0.7-2.6c-0.4-0.5-1.1-0.8-1.9-0.8
		c-1.3,0-2.3,0.6-3.2,1.7c-0.8,1.1-1.5,2.8-1.9,5c-0.1,0.4-0.1,0.8-0.2,1.3c0,0.4-0.1,0.8-0.1,1.2c0,1.2,0.2,2.1,0.7,2.7
		c0.4,0.6,1.1,1,1.9,1c0.9,0,1.8-0.3,2.6-1c0.8-0.7,1.3-1.5,1.7-2.6L846.9,293.3L846.9,293.3z">
  </path>
  <path id="path2928" class="st1" d="M853.4,301.4c-1.5,0-2.7-0.4-3.6-1.2c-0.9-0.8-1.3-1.9-1.3-3.4c0-0.2,0-0.5,0-0.8
		c0-0.3,0.1-0.6,0.1-0.9c0.3-1.7,1.1-3.2,2.3-4.3c1.2-1.2,2.7-1.9,4.4-2.2l4.1-0.7c0.4-0.1,0.8-0.2,1.1-0.3c0.4-0.2,0.8-0.5,1-0.8
		c0.2-0.4,0.3-0.8,0.3-1.3c0-0.5-0.2-0.9-0.5-1.2c-0.4-0.4-1.2-0.6-2.3-0.6c-0.8,0-1.6,0.2-2.1,0.7c-0.6,0.5-1,1.2-1.4,2.2h-4.6
		c0.5-2.4,1.5-4.2,3.1-5.4c1.6-1.2,3.7-1.8,6.3-1.8c2.4,0,4.1,0.5,5.2,1.6c0.8,0.8,1.2,1.8,1.2,3.1c0,0.4,0,0.9-0.1,1.4l-2.1,11.3
		c-0.2,0.9-0.2,1.6-0.2,2.1c0.1,0.5,0.3,0.8,0.6,1v0l-0.1,0.7h-2.6h-2.6l0,0c-0.1-0.8-0.1-1.6,0-2.4
		C857.8,300.4,855.7,301.4,853.4,301.4 M860.6,293.3l0.5-2.5c-0.5,0.3-1,0.5-1.5,0.7l-2,0.4c-1.3,0.3-2.2,0.7-2.8,1.1
		c-0.6,0.4-0.9,1.1-1.1,1.9c0,0.1,0,0.1,0,0c0,0.1,0,0.3-0.1,0.4c0,0.1,0,0.2,0,0.4c0,0.6,0.2,1,0.5,1.4c0.3,0.3,0.8,0.5,1.4,0.5
		c1.5,0,2.9-0.7,4.1-2.1c0.2-0.2,0.4-0.5,0.6-1C860.4,294.1,860.5,293.7,860.6,293.3">
  </path>
  <path id="path2930" class="st1" d="M868.3,300.9l3.8-20.8h2.4h2.4l-0.6,3l0.7-0.9c1.5-1.8,3.4-2.7,5.6-2.7c2,0,3.5,0.6,4.3,1.9
		c0.9,1.3,1.1,3,0.7,5.3l-2.6,14.2h-2.4h-2.5l2.4-12.8c0.2-1.3,0.2-2.3-0.2-2.9c-0.4-0.6-1.1-1-2.1-1c-1.3,0-2.3,0.4-3.2,1.3
		c-0.9,0.8-1.4,2-1.7,3.5l-2.2,11.9h-2.4L868.3,300.9L868.3,300.9z">
  </path>
  <path id="path2932" class="st1" d="M899.7,300.9l5.2-28.1h2.6h9.7c2.1,0,3.7,0.5,4.8,1.5c1.1,1,1.7,2.4,1.7,4.2
		c0,0.3,0,0.7-0.1,1.1c0,0.4-0.1,0.8-0.2,1.1c-0.4,1.9-1.4,3.4-3.1,4.6c-0.3,0.2-0.6,0.4-0.9,0.5c0.4,0.2,0.7,0.3,1,0.6
		c1.3,1,1.9,2.4,1.9,4.2c0,0.3,0,0.6-0.1,0.9c0,0.3-0.1,0.6-0.1,1c-0.5,2.6-1.7,4.7-3.6,6.2c-1.9,1.5-4.3,2.2-7.3,2.2h-8.9
		L899.7,300.9L899.7,300.9z M909.1,277.7l-1.1,6.1h6.1c1.2,0,2.2-0.2,2.8-0.7c0.7-0.5,1.1-1.2,1.3-2.3c0-0.2,0-0.3,0.1-0.5
		c0-0.1,0-0.3,0-0.5c0-0.7-0.2-1.3-0.7-1.6c-0.5-0.3-1.3-0.5-2.3-0.5L909.1,277.7L909.1,277.7z M907.1,288.6l-1.4,7.4h6
		c1.5,0,2.6-0.3,3.4-0.9c0.8-0.6,1.3-1.5,1.6-2.8c0-0.2,0.1-0.4,0.1-0.6c0-0.2,0-0.3,0-0.5c0-0.9-0.3-1.6-0.8-2
		c-0.5-0.4-1.4-0.7-2.5-0.7H907.1L907.1,288.6z">
  </path>
  <path id="path2934" class="st1" d="M922.9,300.9l14.3-28.1h3h3l3.5,28.1h-2.8H941l-0.6-5.9h-9.3l-2.8,5.9h-2.8H922.9L922.9,300.9z
		 M938.9,279l-5.5,11.4h6.6L938.9,279L938.9,279L938.9,279z">
  </path>
  <path id="path2936" class="st1" d="M954.6,300.9L954.6,300.9h-2.4h-2.4l5.2-28.1h2.7h2.7l6.5,19.9l3.7-19.9h2.4h2.4l-5.2,28.1h-2.6
		h-2.6l-6.7-20.2L954.6,300.9L954.6,300.9z">
  </path>
  <path id="path2938" class="st1" d="M975.6,300.9l5.2-28.1h2.6h2.6l-2.1,11.6l11.9-11.6h3.4h3.4l-12.3,11.7l7.6,16.4h-3.4H991
		l-5.3-12.2l-3.2,3l-1.7,9.2h-2.6H975.6L975.6,300.9z">
  </path>
  <path id="path2940" class="st1" d="M1018.5,280.1l-2.4,12.8c-0.2,1.3-0.2,2.3,0.2,2.9c0.4,0.6,1.1,1,2.1,1c1.2,0,2.3-0.4,3.2-1.3
		c0.9-0.8,1.4-2,1.7-3.5l2.2-11.9h2.4h2.5l-3.8,20.8h-2.4h-2.4l0.5-3c-0.2,0.3-0.4,0.6-0.7,0.9c-1.5,1.8-3.4,2.7-5.6,2.7
		c-2,0-3.4-0.7-4.3-2.1c-0.6-0.9-0.8-2.1-0.8-3.4c0-0.7,0.1-1.5,0.2-2.3l2.5-13.4h2.4L1018.5,280.1L1018.5,280.1z">
  </path>
  <path id="path2942" class="st1" d="M1034.7,280.1L1034.7,280.1h2.3h2.3l-0.5,3l0.4-0.4c1.8-2.1,3.9-3.1,6.1-3.1
		c1.9,0,3.4,0.6,4.4,1.9c1.1,1.3,1.6,3.1,1.6,5.3c0,0.5-0.1,1.1-0.1,1.8c-0.1,0.6-0.2,1.3-0.3,1.9c-0.6,3.1-1.8,5.7-3.7,7.8
		c-1.9,2.1-3.9,3.1-6.2,3.1c-2.2,0-3.8-1-4.8-2.9l0-0.1l-2,10.6h-2.4h-2.4L1034.7,280.1z M1040.4,296.9c1.2,0,2.3-0.6,3.3-1.7
		c1-1.1,1.6-2.6,2-4.5c0.1-0.4,0.1-0.8,0.2-1.2c0.1-0.4,0.1-0.8,0.1-1.2c0-1.3-0.3-2.3-0.8-3c-0.6-0.7-1.3-1.1-2.3-1.1
		c-1.2,0-2.3,0.6-3.3,1.7c-1,1.1-1.6,2.6-1.9,4.4h0c-0.4,2.1-0.3,3.7,0.2,4.9C1038.2,296.4,1039.1,296.9,1040.4,296.9">
  </path>
  <path id="path2944" class="st1" d="M1060.7,301.4c-2.4,0-4.3-0.7-5.7-2.1c-1.4-1.4-2.1-3.4-2.1-5.8c0-0.4,0-0.9,0.1-1.4
		c0.1-0.5,0.1-1,0.2-1.5c0.6-3.4,2-6.1,4-8c2.1-2,4.6-3,7.5-3c2.4,0,4.3,0.7,5.7,2.1c1.4,1.4,2.1,3.4,2.1,5.9c0,0.4,0,0.9-0.1,1.4
		c-0.1,0.5-0.1,1.1-0.2,1.6c-0.6,3.3-1.9,6-4,7.9C1066,300.4,1063.6,301.4,1060.7,301.4 M1061.5,296.8c1.5,0,2.7-0.6,3.6-1.6
		c0.9-1.1,1.6-2.7,2-4.9c0.1-0.4,0.1-0.7,0.2-1.1c0-0.4,0.1-0.7,0.1-1c0-1.3-0.3-2.3-0.9-3c-0.6-0.7-1.5-1.1-2.6-1.1
		c-1.5,0-2.7,0.6-3.6,1.7c-0.9,1.1-1.6,2.8-2,5c-0.1,0.3-0.1,0.7-0.1,1c0,0.4-0.1,0.7,0,1c0,1.3,0.3,2.3,0.9,2.9
		C1059.5,296.5,1060.4,296.8,1061.5,296.8">
  </path>
  <path id="path2946" class="st1" d="M1073.6,300.9l3.8-20.8h2.4h2.4l-0.6,3l0.7-0.9c1.6-1.8,3.4-2.7,5.6-2.7c2,0,3.4,0.6,4.3,1.9
		c0.9,1.3,1.1,3,0.7,5.3l-2.6,14.2h-2.4h-2.4l2.4-12.8c0.2-1.3,0.2-2.3-0.2-2.9c-0.4-0.6-1.1-1-2.1-1c-1.2,0-2.3,0.4-3.2,1.3
		c-0.9,0.8-1.4,2-1.7,3.5l-2.2,11.9h-2.4C1076,300.9,1073.6,300.9,1073.6,300.9z">
  </path>
  <path id="path2948" class="st1" d="M1098.6,293.2l1.1-13.5l1.3-6.8h2.7h2.7l-1.3,6.8l-3.9,13.5h-1.3H1098.6z M1096.9,295.3h5.1
		l-1,5.5h-5.1L1096.9,295.3z">
  </path>
  <path id="path2950" class="st2" d="M285.8,171.9h32.3v125.6h-32.3v-30.9c-28.3,10.5-54.8,11.5-79.2-12.7
		c-10.1-10.7-15.7-25.1-13.3-50.5c0.3-3.7-1.5-19.5-6-29.5h28.7c13.3,21.6-4.2,46.8,16.4,64.3c27.9,18.4,52.4-3.5,53.5-23.4V171.9z
		 M253.7,185.4c15.2,0,27.7,12.4,27.7,27.6c0,15.2-12.4,27.6-27.7,27.6c-15.3,0-27.7-12.4-27.7-27.6
		C226.1,197.9,238.5,185.4,253.7,185.4">
  </path>
  <path id="path2952" class="st1" d="M365.1,212c12.4,0,22.6,10.3,22.6,22.9c0,15.5-15.1,25.5-29.4,20.8v-10.4
		c7.9,4.7,18.1-0.1,18.1-9.6c0-6.7-5.4-12.2-12-12.2c-6.6,0-12,5.5-12,12.2c0,14.1-0.3,28.2-0.3,42.3h-9.4v-43.1l0.1-2.1
		C342.9,221.4,353,212.1,365.1,212">
  </path>
  <path id="path2954" class="st1" d="M391,213.9h9.9v22.5c-0.7,13.2,19.9,14.2,19.4,0v-22.5h9.9V237c1,28.7-40.7,26.7-39.3,0V213.9z">
  </path>
  <path id="path2956" class="st1" d="M435.5,256.6h9.9V234c-0.7-13.2,19.9-14.2,19.4,0v22.5h9.9v-23.1c1-28.7-40.7-26.7-39.3,0V256.6
		z">
  </path>
  <path id="path2958" class="st1" d="M572.1,258.2c12.4,0,22.6-10.3,22.6-22.9c0-15.5-15.1-25.5-29.4-20.9v10.4
		c7.9-4.7,18.1,0.1,18.1,9.6c0,6.7-5.4,12.2-12,12.2c-6.6,0-12-5.5-12-12.2c0-14.1-0.3-28.2-0.3-42.3h-9.4v43.1l0.1,2.1
		C549.9,248.8,560,258,572.1,258.2">
  </path>
  <path id="path2960" class="st1" d="M477.5,224.3V214h19.7v41.5c0.1,12.9-8.8,22.9-21.6,24v-9.3c6.3-2.6,11.2-6.3,11.3-14.8v-31.1
		C486.9,224.3,477.5,224.3,477.5,224.3z">
  </path>
  <path id="path2962" class="st1" d="M500.8,238c-1-12.2,7.9-20.7,16.4-23.4c12.1-3.5,27.1,2.7,27.7,19.8V256h-9.2l0.1-21.9
		c-0.6-10-15.8-14.2-22-4.7c-2.6,5-3.2,12.7,3.9,16.7c3.4,1.2,7.2,1.8,12,1v9.3c-7.6,2.3-15.1,1.7-22.5-5.1
		C503.4,247.5,501.6,243.1,500.8,238">
  </path>
  <path id="path2964" class="st1" d="M609.9,256.6h9.9V234c-0.7-13.2,19.9-14.2,19.4,0v22.5h9.9v-23.1c1-28.7-40.7-26.7-39.3,0V256.6
		z">
  </path>
  <path id="path2966" class="st1" d="M653.6,238c-1-12.2,7.9-20.7,16.4-23.4c12.1-3.5,27.1,2.7,27.7,19.8V256h-9.2l0.1-21.9
		c-0.6-10-15.8-14.2-22-4.7c-2.6,5-3.2,12.7,3.9,16.7c3.4,1.2,7.2,1.8,12,1v9.3c-7.6,2.3-15.1,1.7-22.5-5.1
		C656.2,247.5,654.4,243.1,653.6,238">
  </path>
  <path id="path2968" class="st1" d="M793.8,256.6h9.9V234c-0.7-13.2,19.9-14.2,19.4,0v22.5h9.9v-23.1c1-28.7-40.7-26.7-39.3,0V256.6
		z">
  </path>
  <path id="path2970" class="st1" d="M837.5,238c-1-12.2,7.9-20.7,16.4-23.4c12.1-3.5,27.1,2.7,27.7,19.8V256h-9.2l0.1-21.9
		c-0.6-10-15.8-14.2-22-4.7c-2.6,5-3.2,12.7,3.9,16.7c3.4,1.2,7.2,1.8,12,1v9.3c-7.6,2.3-15.1,1.7-22.5-5.1
		C840.1,247.5,838.3,243.1,837.5,238">
  </path>
  <path id="path2972" class="st1" d="M736.1,193.3c4.3,0,7.9,3.5,7.9,7.9c0,4.3-3.5,7.9-7.9,7.9c-4.3,0-7.9-3.5-7.9-7.9
		C728.2,196.8,731.8,193.3,736.1,193.3">
  </path>
  <path id="path2974" class="st1" d="M731,214.3h11.1v42.2H731V214.3z">
  </path>
  <path id="path2976" class="st1" d="M703.1,199.6h10.6v14.8h13v10.2h-13v7c-0.4,12.4,3.5,15.1,12.3,17.3l0,8.3
		c-17.1,1.5-23.1-8.8-22.9-25.7L703.1,199.6L703.1,199.6z">
  </path>
  <path class="st1" d="M768,214.1c-12.1,0-22,9.9-22,22c0,12.1,9.9,22,22,22s22-9.9,22-22C790,224,780.2,214.1,768,214.1z M768,247.6
		c-6.3,0-11.4-5.1-11.4-11.4c0-6.3,5.1-11.4,11.4-11.4c6.3,0,11.4,5.1,11.4,11.4C779.5,242.5,774.3,247.6,768,247.6z">
  </path>
  <path id="path2980" class="st1" d="M978.3,238c-1-12.2,7.9-20.7,16.4-23.4c12.1-3.5,27.1,2.7,27.7,19.8V256h-9.2l0.1-21.9
		c-0.6-10-15.8-14.2-22-4.7c-2.6,5-3.2,12.7,3.9,16.7c3.4,1.2,7.2,1.8,12,1v9.3c-7.6,2.3-15.1,1.7-22.5-5.1
		C981,247.5,979.2,243.1,978.3,238">
  </path>
  <path id="path2982" class="st1" d="M1028.2,256.6h9.9V234c-0.7-13.2,19.9-14.2,19.4,0v22.5h9.9v-23.1c1-28.7-40.7-26.7-39.3,0
		V256.6z">
  </path>
  <path id="path2984" class="st1" d="M952.9,258.2c12.4,0,22.6-10.3,22.6-22.9c0-15.5-15.1-25.5-29.4-20.9v10.4
		c7.9-4.7,18.1,0.1,18.1,9.6c0,6.7-5.4,12.2-12,12.2c-6.6,0-12-5.5-12-12.2c0-14.1-0.3-28.2-0.3-42.3h-9.4v43.1l0.1,2.1
		C930.6,248.8,940.7,258,952.9,258.2">
  </path>
  <path id="path2986" class="st1" d="M886.9,192.9h9.7v35.7c-0.6,14.3,5.7,17.9,16,19.3l0,9.3c-19.1,1.6-25.8-9.8-25.6-28.7V192.9z">
  </path>
  <path id="path2988" class="st1" d="M1072.5,192.4h10.9v33.2c3.2-8.6,10.7-14.8,19.4-14.8c0.6,0,1.2,0,1.9,0.1v10.4
		c-7,1.5-12.3,7.2-12.3,14c0,6.8,5.2,12.5,12.3,14v9.1c-0.6,0.1-1.2,0.1-1.9,0.1c-8.7,0-16.2-6.1-19.4-14.8v12.8h-10.9
		C1072.5,256.6,1072.5,192.4,1072.5,192.4z">
  </path>
 </g>
</svg>