<svg width="558" height="320" viewBox="0 0 558 320" fill="none" xmlns="http://www.w3.org/2000/svg">
<path d="M0 0H558V320H0V0Z" fill="#173540"/>
<g clip-path="url(#clip0_4137_17517)">
<path d="M348.604 33.2856H203.889C192.147 33.2856 182.627 42.7932 182.627 54.5214V402.321C182.627 414.049 192.147 423.557 203.889 423.557H348.604C360.347 423.557 369.866 414.049 369.866 402.321V54.5214C369.866 42.7932 360.347 33.2856 348.604 33.2856Z" fill="#F1F1F1"/>
<g filter="url(#filter0_d_4137_17517)">
<path d="M346.24 26.2505H207.61C190.701 26.2505 176.993 39.9414 176.993 56.8299V402.547C176.993 419.436 190.701 433.127 207.61 433.127H346.24C363.15 433.127 376.858 419.436 376.858 402.547V56.8299C376.858 39.9414 363.15 26.2505 346.24 26.2505Z" fill="#F1F1F1"/>
</g>
<path d="M178.694 85.7104H175.292V102.699H178.694V85.7104Z" fill="#F3F3F3"/>
<path d="M178.694 114.591H175.292V142.622H178.694V114.591Z" fill="#F3F3F3"/>
<path d="M378.559 125.634H375.157V169.804H378.559V125.634Z" fill="#F3F3F3"/>
<path d="M178.694 151.966H175.292V179.997H178.694V151.966Z" fill="#F3F3F3"/>
<g filter="url(#filter1_i_4137_17517)">
<path d="M347.941 30.4977H205.909C192.288 30.4977 181.245 41.5264 181.245 55.1311V404.246C181.245 417.851 192.288 428.88 205.909 428.88H347.941C361.563 428.88 372.605 417.851 372.605 404.246V55.1311C372.605 41.5264 361.563 30.4977 347.941 30.4977Z" fill="#F6F5F5" fill-opacity="0.3"/>
</g>
<path d="M351.343 38.1426H202.507C194.522 38.1426 188.049 44.6077 188.049 52.5829V406.795C188.049 414.77 194.522 421.235 202.507 421.235H351.343C359.328 421.235 365.802 414.77 365.802 406.795V52.5829C365.802 44.6077 359.328 38.1426 351.343 38.1426Z" fill="#F5F5F5"/>
<path d="M228.022 29.8881H328.38V40.6909C328.38 46.3204 323.81 50.8841 318.174 50.8841H238.228C232.592 50.8841 228.022 46.3204 228.022 40.6909V29.8881Z" fill="#F1F0F0"/>
<g filter="url(#filter2_d_4137_17517)">
<path fill-rule="evenodd" clip-rule="evenodd" d="M227.3 37.2932H201.785C193.8 37.2932 187.327 43.7584 187.327 51.7335V405.945C187.327 413.921 193.8 420.386 201.785 420.386H350.621C358.606 420.386 365.079 413.921 365.079 405.945V51.7335C365.079 43.7584 358.606 37.2932 350.621 37.2932H327.658V39.8415C327.658 45.471 323.088 50.0346 317.452 50.0346H237.506C231.87 50.0346 227.3 45.471 227.3 39.8415V37.2932Z" fill="#F9F8F8"/>
</g>
<path d="M287.982 38.9921H267.57C266.396 38.9921 265.444 39.9428 265.444 41.1156C265.444 42.2885 266.396 43.2392 267.57 43.2392H287.982C289.156 43.2392 290.108 42.2885 290.108 41.1156C290.108 39.9428 289.156 38.9921 287.982 38.9921Z" fill="#D9D9D9"/>
<path fill-rule="evenodd" clip-rule="evenodd" d="M267.266 38.9921C266.259 38.9921 265.444 39.807 265.444 40.8123C265.444 41.0711 265.498 41.3174 265.595 41.5404C265.877 40.8975 266.519 40.4482 267.266 40.4482H288.285C289.033 40.4482 289.675 40.8975 289.957 41.5404C290.054 41.3174 290.108 41.0711 290.108 40.8123C290.108 39.807 289.292 38.9921 288.285 38.9921H267.266Z" fill="#989898"/>
<path d="M300.314 43.239C301.723 43.239 302.866 42.0981 302.866 40.6907C302.866 39.2834 301.723 38.1425 300.314 38.1425C298.905 38.1425 297.763 39.2834 297.763 40.6907C297.763 42.0981 298.905 43.239 300.314 43.239Z" fill="#D9D9D9"/>
<path d="M300.739 42.3897C301.444 42.3897 302.015 41.8193 302.015 41.1156C302.015 40.4119 301.444 39.8414 300.739 39.8414C300.035 39.8414 299.463 40.4119 299.463 41.1156C299.463 41.8193 300.035 42.3897 300.739 42.3897Z" fill="#E2E2E2"/>
<path fill-rule="evenodd" clip-rule="evenodd" d="M302.831 41.1155C302.854 40.9773 302.866 40.8355 302.866 40.6907C302.866 39.2833 301.723 38.1425 300.314 38.1425C298.905 38.1425 297.763 39.2833 297.763 40.6907C297.763 40.8355 297.775 40.9773 297.798 41.1155C298.001 39.9102 299.05 38.9919 300.314 38.9919C301.578 38.9919 302.627 39.9102 302.831 41.1155Z" fill="#989898"/>
<path d="M276.099 96.1315V82.4982H273.369V90.0725H265.786V77.9537L276.099 70.986V64.3209L261.141 74.469C260.442 74.9434 260.022 75.7327 260.022 76.577V93.5832C260.022 94.9907 261.165 96.1315 262.574 96.1315H276.099Z" fill="#1BA48B"/>
<path d="M275.803 96.1315V82.4982H278.533V90.0725H286.117V77.9537L275.803 70.986V64.3209L290.762 74.469C291.461 74.9434 291.88 75.7327 291.88 76.577V93.5832C291.88 94.9907 290.737 96.1315 289.328 96.1315H275.803Z" fill="#00C1A6"/>
<path d="M355.819 113.714H200.218C198.34 113.714 196.816 115.235 196.816 117.111V187.31C196.816 189.187 198.34 190.708 200.218 190.708H355.819C357.698 190.708 359.221 189.187 359.221 187.31V117.111C359.221 115.235 357.698 113.714 355.819 113.714Z" fill="white"/>
<path d="M251.389 136.423L252.466 134.32H253.647L251.933 137.44V139.428H250.844V137.475L249.131 134.32H250.318L251.389 136.423Z" fill="#0A8A17"/>
<path d="M257.801 137.468C257.801 137.794 257.756 138.083 257.667 138.334C257.58 138.586 257.451 138.799 257.281 138.974C257.115 139.146 256.911 139.277 256.674 139.366C256.438 139.454 256.172 139.498 255.875 139.498C255.597 139.498 255.342 139.454 255.108 139.366C254.878 139.277 254.676 139.146 254.504 138.974C254.335 138.799 254.203 138.586 254.109 138.334C254.017 138.083 253.971 137.794 253.971 137.468C253.971 137.035 254.049 136.668 254.204 136.367C254.36 136.066 254.581 135.839 254.868 135.682C255.156 135.526 255.499 135.448 255.897 135.448C256.267 135.448 256.594 135.526 256.879 135.682C257.166 135.839 257.391 136.066 257.553 136.367C257.718 136.668 257.801 137.035 257.801 137.468ZM255.07 137.468C255.07 137.724 255.098 137.939 255.154 138.114C255.211 138.289 255.3 138.421 255.42 138.509C255.539 138.598 255.696 138.642 255.89 138.642C256.08 138.642 256.234 138.598 256.353 138.509C256.472 138.421 256.559 138.289 256.614 138.114C256.671 137.939 256.699 137.724 256.699 137.468C256.699 137.21 256.671 136.995 256.614 136.825C256.559 136.652 256.472 136.523 256.353 136.437C256.232 136.351 256.075 136.308 255.882 136.308C255.597 136.308 255.39 136.404 255.261 136.598C255.134 136.791 255.07 137.081 255.07 137.468Z" fill="#0A8A17"/>
<path d="M262.316 135.522V139.428H261.489L261.344 138.929H261.288C261.203 139.061 261.097 139.169 260.97 139.253C260.843 139.337 260.703 139.399 260.55 139.439C260.396 139.478 260.237 139.498 260.072 139.498C259.79 139.498 259.543 139.45 259.334 139.351C259.124 139.251 258.961 139.096 258.843 138.886C258.728 138.677 258.67 138.405 258.67 138.069V135.522H259.747V137.803C259.747 138.083 259.798 138.294 259.899 138.436C260.001 138.578 260.162 138.649 260.384 138.649C260.602 138.649 260.774 138.6 260.899 138.502C261.024 138.402 261.111 138.256 261.16 138.065C261.212 137.872 261.238 137.637 261.238 137.36V135.522H262.316Z" fill="#0A8A17"/>
<path d="M265.651 135.448C265.705 135.448 265.767 135.451 265.838 135.459C265.911 135.463 265.971 135.47 266.015 135.479L265.934 136.479C265.898 136.467 265.848 136.46 265.782 136.455C265.718 136.448 265.663 136.444 265.616 136.444C265.476 136.444 265.341 136.461 265.209 136.496C265.08 136.532 264.964 136.589 264.86 136.668C264.756 136.744 264.674 136.847 264.612 136.975C264.554 137.101 264.524 137.256 264.524 137.44V139.428H263.446V135.522H264.263L264.422 136.179H264.475C264.552 136.046 264.649 135.925 264.765 135.815C264.882 135.704 265.015 135.614 265.163 135.55C265.314 135.482 265.476 135.448 265.651 135.448Z" fill="#0A8A17"/>
<path d="M271.746 138.01C271.746 138.312 271.672 138.576 271.523 138.799C271.375 139.023 271.158 139.196 270.873 139.316C270.591 139.438 270.246 139.498 269.841 139.498C269.663 139.498 269.487 139.486 269.315 139.463C269.146 139.44 268.981 139.406 268.824 139.362C268.668 139.315 268.52 139.258 268.378 139.19V138.184C268.623 138.292 268.878 138.388 269.142 138.474C269.406 138.56 269.667 138.604 269.926 138.604C270.105 138.604 270.249 138.581 270.358 138.534C270.468 138.487 270.548 138.423 270.597 138.341C270.647 138.26 270.671 138.167 270.671 138.062C270.671 137.934 270.628 137.825 270.541 137.734C270.454 137.643 270.334 137.558 270.181 137.478C270.03 137.399 269.859 137.314 269.669 137.223C269.548 137.167 269.418 137.1 269.276 137.02C269.134 136.939 269 136.84 268.873 136.724C268.746 136.607 268.641 136.466 268.559 136.301C268.479 136.133 268.439 135.933 268.439 135.699C268.439 135.394 268.509 135.134 268.651 134.917C268.792 134.7 268.993 134.535 269.255 134.421C269.519 134.305 269.829 134.246 270.187 134.246C270.456 134.246 270.711 134.277 270.955 134.34C271.199 134.401 271.455 134.49 271.721 134.606L271.368 135.448C271.13 135.353 270.916 135.279 270.728 135.228C270.54 135.174 270.348 135.148 270.153 135.148C270.016 135.148 269.899 135.17 269.802 135.214C269.706 135.256 269.633 135.316 269.584 135.396C269.534 135.473 269.51 135.563 269.51 135.665C269.51 135.786 269.544 135.889 269.615 135.972C269.688 136.054 269.796 136.133 269.94 136.21C270.086 136.287 270.267 136.376 270.484 136.479C270.748 136.602 270.973 136.731 271.16 136.866C271.347 137 271.492 137.157 271.594 137.339C271.695 137.518 271.746 137.741 271.746 138.01Z" fill="#0A8A17"/>
<path d="M274.201 139.498C273.811 139.498 273.478 139.428 273.202 139.288C272.926 139.146 272.716 138.927 272.573 138.632C272.429 138.336 272.357 137.957 272.357 137.496C272.357 137.019 272.438 136.63 272.601 136.329C272.766 136.026 272.994 135.804 273.283 135.661C273.575 135.519 273.913 135.448 274.297 135.448C274.57 135.448 274.806 135.475 275.003 135.529C275.204 135.58 275.378 135.642 275.526 135.714L275.208 136.539C275.039 136.471 274.881 136.416 274.735 136.374C274.589 136.33 274.443 136.308 274.297 136.308C274.109 136.308 273.952 136.352 273.827 136.441C273.702 136.527 273.609 136.658 273.548 136.832C273.487 137.007 273.456 137.226 273.456 137.489C273.456 137.747 273.489 137.961 273.555 138.132C273.621 138.302 273.717 138.429 273.842 138.513C273.966 138.594 274.118 138.635 274.297 138.635C274.521 138.635 274.72 138.606 274.894 138.548C275.068 138.487 275.238 138.403 275.403 138.296V139.208C275.238 139.31 275.065 139.384 274.883 139.428C274.705 139.475 274.477 139.498 274.201 139.498Z" fill="#0A8A17"/>
<path d="M279.91 137.468C279.91 137.794 279.866 138.083 279.776 138.334C279.689 138.586 279.561 138.799 279.392 138.974C279.224 139.146 279.022 139.277 278.783 139.366C278.548 139.454 278.282 139.498 277.985 139.498C277.708 139.498 277.452 139.454 277.219 139.366C276.987 139.277 276.786 139.146 276.615 138.974C276.445 138.799 276.313 138.586 276.218 138.334C276.126 138.083 276.081 137.794 276.081 137.468C276.081 137.035 276.159 136.668 276.314 136.367C276.469 136.066 276.691 135.839 276.978 135.682C277.265 135.526 277.608 135.448 278.006 135.448C278.376 135.448 278.703 135.526 278.988 135.682C279.276 135.839 279.5 136.066 279.664 136.367C279.828 136.668 279.91 137.035 279.91 137.468ZM277.179 137.468C277.179 137.724 277.207 137.939 277.264 138.114C277.321 138.289 277.409 138.421 277.529 138.509C277.65 138.598 277.806 138.642 277.999 138.642C278.19 138.642 278.345 138.598 278.462 138.509C278.582 138.421 278.669 138.289 278.724 138.114C278.78 137.939 278.808 137.724 278.808 137.468C278.808 137.21 278.78 136.995 278.724 136.825C278.669 136.652 278.582 136.523 278.462 136.437C278.342 136.351 278.186 136.308 277.992 136.308C277.708 136.308 277.5 136.404 277.37 136.598C277.243 136.791 277.179 137.081 277.179 137.468Z" fill="#0A8A17"/>
<path d="M283.006 135.448C283.06 135.448 283.122 135.451 283.193 135.459C283.266 135.463 283.326 135.47 283.37 135.479L283.289 136.479C283.253 136.467 283.203 136.46 283.137 136.455C283.073 136.448 283.018 136.444 282.971 136.444C282.831 136.444 282.696 136.461 282.564 136.496C282.435 136.532 282.319 136.589 282.215 136.668C282.111 136.744 282.029 136.847 281.967 136.975C281.909 137.101 281.879 137.256 281.879 137.44V139.428H280.801V135.522H281.618L281.777 136.179H281.83C281.907 136.046 282.004 135.925 282.12 135.815C282.237 135.704 282.37 135.614 282.518 135.55C282.669 135.482 282.831 135.448 283.006 135.448Z" fill="#0A8A17"/>
<path d="M285.715 135.448C286.081 135.448 286.395 135.518 286.659 135.658C286.923 135.795 287.126 135.996 287.27 136.259C287.414 136.523 287.486 136.844 287.486 137.223V137.741H284.939C284.95 138.041 285.041 138.277 285.21 138.45C285.383 138.62 285.62 138.705 285.924 138.705C286.176 138.705 286.407 138.679 286.617 138.628C286.826 138.576 287.042 138.5 287.263 138.397V139.222C287.067 139.318 286.863 139.388 286.648 139.432C286.436 139.476 286.179 139.498 285.874 139.498C285.479 139.498 285.128 139.426 284.822 139.281C284.518 139.137 284.279 138.917 284.104 138.621C283.933 138.325 283.847 137.952 283.847 137.503C283.847 137.047 283.924 136.667 284.08 136.364C284.238 136.059 284.456 135.83 284.737 135.679C285.017 135.525 285.344 135.448 285.715 135.448ZM285.723 136.207C285.513 136.207 285.338 136.273 285.2 136.405C285.063 136.539 284.985 136.747 284.963 137.031H286.476C286.473 136.872 286.443 136.731 286.387 136.608C286.333 136.485 286.25 136.387 286.14 136.315C286.032 136.242 285.892 136.207 285.723 136.207Z" fill="#0A8A17"/>
<path d="M291.674 134.32L289.753 139.428H289.173L291.098 134.32H291.674Z" fill="#474747"/>
<path d="M295.032 139.428H294.523V136.211C294.523 136.089 294.523 135.984 294.523 135.897C294.526 135.807 294.527 135.727 294.53 135.654C294.534 135.58 294.539 135.504 294.545 135.428C294.481 135.494 294.419 135.551 294.363 135.598C294.306 135.644 294.237 135.701 294.153 135.769L293.628 136.185L293.355 135.835L294.599 134.887H295.032V139.428Z" fill="#171717"/>
<path d="M303.487 137.152C303.487 137.52 303.458 137.849 303.402 138.139C303.346 138.43 303.256 138.675 303.135 138.875C303.013 139.076 302.857 139.23 302.663 139.335C302.471 139.439 302.24 139.49 301.969 139.49C301.628 139.49 301.346 139.399 301.122 139.214C300.9 139.03 300.734 138.763 300.622 138.416C300.513 138.066 300.459 137.645 300.459 137.152C300.459 136.667 300.508 136.251 300.607 135.903C300.707 135.553 300.868 135.285 301.09 135.098C301.312 134.91 301.605 134.816 301.969 134.816C302.315 134.816 302.6 134.909 302.824 135.095C303.048 135.28 303.215 135.547 303.323 135.897C303.432 136.245 303.487 136.663 303.487 137.152ZM300.984 137.152C300.984 137.574 301.016 137.926 301.081 138.208C301.146 138.489 301.251 138.7 301.395 138.841C301.542 138.98 301.733 139.05 301.969 139.05C302.206 139.05 302.396 138.98 302.541 138.841C302.688 138.702 302.794 138.492 302.858 138.21C302.925 137.929 302.959 137.576 302.959 137.152C302.959 136.736 302.926 136.387 302.862 136.108C302.797 135.826 302.692 135.615 302.548 135.474C302.403 135.332 302.21 135.26 301.969 135.26C301.729 135.26 301.537 135.332 301.392 135.474C301.247 135.615 301.143 135.826 301.078 136.108C301.015 136.387 300.984 136.736 300.984 137.152Z" fill="#171717"/>
<path d="M307.167 137.152C307.167 137.52 307.138 137.849 307.082 138.139C307.025 138.43 306.937 138.675 306.815 138.875C306.694 139.076 306.536 139.23 306.344 139.335C306.151 139.439 305.92 139.49 305.65 139.49C305.309 139.49 305.026 139.399 304.802 139.214C304.58 139.03 304.414 138.763 304.303 138.416C304.194 138.066 304.14 137.645 304.14 137.152C304.14 136.667 304.189 136.251 304.287 135.903C304.387 135.553 304.549 135.285 304.771 135.098C304.993 134.91 305.286 134.816 305.65 134.816C305.995 134.816 306.28 134.909 306.504 135.095C306.729 135.28 306.894 135.547 307.003 135.897C307.112 136.245 307.167 136.663 307.167 137.152ZM304.664 137.152C304.664 137.574 304.697 137.926 304.761 138.208C304.826 138.489 304.931 138.7 305.075 138.841C305.221 138.98 305.414 139.05 305.65 139.05C305.887 139.05 306.077 138.98 306.222 138.841C306.368 138.702 306.474 138.492 306.539 138.21C306.606 137.929 306.639 137.576 306.639 137.152C306.639 136.736 306.607 136.387 306.542 136.108C306.477 135.826 306.372 135.615 306.228 135.474C306.083 135.332 305.891 135.26 305.65 135.26C305.409 135.26 305.216 135.332 305.072 135.474C304.928 135.615 304.823 135.826 304.758 136.108C304.695 136.387 304.664 136.736 304.664 137.152Z" fill="#171717"/>
<path d="M207.096 151.697C207.096 149.94 208.535 148.516 210.311 148.516H346.755C348.531 148.516 349.97 149.94 349.97 151.697C349.97 153.453 348.531 154.877 346.755 154.877H210.311C208.535 154.877 207.096 153.453 207.096 151.697Z" fill="#E6F5E7"/>
<path d="M207.096 151.697C207.096 149.94 208.535 148.516 210.311 148.516H307.246C309.022 148.516 310.462 149.94 310.462 151.697C310.462 153.453 309.022 154.877 307.246 154.877H210.311C208.535 154.877 207.096 153.453 207.096 151.697Z" fill="#2CAC41"/>
<path d="M241.639 172.143H241.105V170.004H238.693V172.143H238.159V167.602H238.693V169.537H241.105V167.602H241.639V172.143Z" fill="#171717"/>
<path d="M245.79 170.435C245.79 170.715 245.754 170.964 245.681 171.183C245.608 171.403 245.501 171.589 245.363 171.74C245.225 171.891 245.057 172.007 244.861 172.087C244.666 172.166 244.445 172.205 244.198 172.205C243.968 172.205 243.756 172.166 243.564 172.087C243.373 172.007 243.207 171.891 243.067 171.74C242.929 171.589 242.821 171.403 242.744 171.183C242.669 170.964 242.631 170.715 242.631 170.435C242.631 170.062 242.695 169.745 242.822 169.485C242.951 169.221 243.133 169.022 243.369 168.885C243.608 168.746 243.891 168.677 244.22 168.677C244.534 168.677 244.808 168.746 245.043 168.885C245.279 169.023 245.463 169.225 245.592 169.488C245.724 169.749 245.79 170.064 245.79 170.435ZM243.171 170.435C243.171 170.709 243.207 170.946 243.281 171.146C243.355 171.347 243.468 171.502 243.62 171.612C243.773 171.722 243.97 171.776 244.211 171.776C244.449 171.776 244.645 171.722 244.798 171.612C244.953 171.502 245.067 171.347 245.141 171.146C245.214 170.946 245.25 170.709 245.25 170.435C245.25 170.163 245.214 169.93 245.141 169.733C245.067 169.534 244.954 169.381 244.801 169.273C244.648 169.165 244.45 169.112 244.208 169.112C243.85 169.112 243.587 169.229 243.419 169.462C243.254 169.697 243.171 170.021 243.171 170.435Z" fill="#171717"/>
<path d="M249.493 172.137L248.88 170.156C248.853 170.071 248.827 169.988 248.802 169.907C248.779 169.824 248.757 169.745 248.736 169.671C248.717 169.594 248.699 169.524 248.683 169.46C248.668 169.394 248.656 169.337 248.645 169.288H248.623C248.615 169.337 248.603 169.394 248.588 169.46C248.574 169.524 248.556 169.594 248.535 169.671C248.516 169.747 248.495 169.829 248.472 169.913C248.449 169.996 248.423 170.08 248.394 170.165L247.753 172.137H247.166L246.217 168.733H246.757L247.254 170.612C247.287 170.736 247.319 170.86 247.348 170.981C247.379 171.102 247.405 171.216 247.427 171.324C247.45 171.429 247.466 171.521 247.477 171.6H247.502C247.514 171.548 247.528 171.486 247.542 171.414C247.559 171.341 247.577 171.264 247.596 171.184C247.617 171.101 247.639 171.019 247.662 170.938C247.685 170.856 247.708 170.777 247.731 170.705L248.366 168.733H248.928L249.54 170.702C249.572 170.801 249.601 170.905 249.631 171.013C249.663 171.121 249.691 171.225 249.716 171.326C249.741 171.426 249.759 171.515 249.769 171.594H249.794C249.803 171.523 249.818 171.436 249.841 171.333C249.864 171.229 249.891 171.116 249.92 170.991C249.952 170.867 249.984 170.74 250.017 170.612L250.52 168.733H251.051L250.099 172.137H249.493Z" fill="#171717"/>
<path d="M254.574 172.205C254.139 172.205 253.794 172.058 253.538 171.764C253.285 171.471 253.158 171.033 253.158 170.454C253.158 169.868 253.287 169.425 253.547 169.127C253.807 168.827 254.152 168.677 254.584 168.677C254.766 168.677 254.925 168.701 255.061 168.748C255.197 168.796 255.314 168.86 255.413 168.941C255.512 169.02 255.594 169.11 255.661 169.211H255.699C255.69 169.147 255.682 169.059 255.673 168.947C255.665 168.836 255.661 168.744 255.661 168.673V167.31H256.183V172.143H255.762L255.682 171.659H255.661C255.596 171.76 255.513 171.852 255.413 171.935C255.314 172.018 255.196 172.084 255.058 172.134C254.922 172.182 254.761 172.205 254.574 172.205ZM254.656 171.776C255.024 171.776 255.285 171.674 255.438 171.466C255.591 171.259 255.667 170.952 255.667 170.544V170.45C255.667 170.018 255.594 169.685 255.447 169.453C255.303 169.221 255.039 169.106 254.656 169.106C254.335 169.106 254.095 169.228 253.936 169.472C253.777 169.714 253.698 170.045 253.698 170.466C253.698 170.884 253.777 171.207 253.934 171.435C254.093 171.663 254.334 171.776 254.656 171.776Z" fill="#171717"/>
<path d="M260.256 170.435C260.256 170.715 260.219 170.964 260.146 171.183C260.072 171.403 259.967 171.589 259.829 171.74C259.69 171.891 259.523 172.007 259.326 172.087C259.131 172.166 258.91 172.205 258.664 172.205C258.433 172.205 258.221 172.166 258.029 172.087C257.839 172.007 257.673 171.891 257.532 171.74C257.395 171.589 257.287 171.403 257.209 171.183C257.134 170.964 257.096 170.715 257.096 170.435C257.096 170.062 257.16 169.745 257.288 169.485C257.415 169.221 257.598 169.022 257.834 168.885C258.073 168.746 258.357 168.677 258.685 168.677C259 168.677 259.273 168.746 259.508 168.885C259.745 169.023 259.927 169.225 260.058 169.488C260.189 169.749 260.256 170.064 260.256 170.435ZM257.636 170.435C257.636 170.709 257.673 170.946 257.746 171.146C257.82 171.347 257.932 171.502 258.085 171.612C258.238 171.722 258.435 171.776 258.676 171.776C258.915 171.776 259.11 171.722 259.263 171.612C259.418 171.502 259.532 171.347 259.605 171.146C259.679 170.946 259.716 170.709 259.716 170.435C259.716 170.163 259.679 169.93 259.605 169.733C259.532 169.534 259.419 169.381 259.267 169.273C259.114 169.165 258.915 169.112 258.673 169.112C258.315 169.112 258.052 169.229 257.885 169.462C257.719 169.697 257.636 170.021 257.636 170.435Z" fill="#171717"/>
<path d="M262.482 168.677C262.775 168.677 263.026 168.741 263.236 168.87C263.445 168.998 263.605 169.178 263.716 169.41C263.827 169.64 263.883 169.909 263.883 170.218V170.537H261.505C261.512 170.937 261.612 171.241 261.807 171.451C262.002 171.66 262.275 171.764 262.629 171.764C262.847 171.764 263.04 171.745 263.208 171.705C263.375 171.666 263.549 171.608 263.729 171.532V171.984C263.555 172.062 263.382 172.117 263.21 172.153C263.041 172.187 262.84 172.205 262.607 172.205C262.277 172.205 261.988 172.139 261.74 172.007C261.496 171.872 261.305 171.675 261.169 171.416C261.033 171.158 260.965 170.841 260.965 170.466C260.965 170.1 261.027 169.783 261.15 169.515C261.276 169.247 261.452 169.039 261.678 168.894C261.906 168.749 262.174 168.677 262.482 168.677ZM262.475 169.099C262.197 169.099 261.975 169.189 261.81 169.37C261.644 169.55 261.546 169.801 261.514 170.124H263.336C263.334 169.921 263.302 169.744 263.239 169.59C263.178 169.434 263.085 169.315 262.959 169.23C262.833 169.143 262.673 169.099 262.475 169.099Z" fill="#171717"/>
<path d="M266.995 171.211C266.995 171.429 266.94 171.612 266.828 171.761C266.719 171.908 266.563 172.019 266.357 172.093C266.155 172.168 265.911 172.205 265.629 172.205C265.388 172.205 265.18 172.187 265.004 172.149C264.828 172.112 264.674 172.059 264.542 171.991V171.516C264.682 171.584 264.85 171.646 265.045 171.702C265.239 171.758 265.438 171.786 265.641 171.786C265.938 171.786 266.155 171.738 266.288 171.643C266.422 171.548 266.489 171.419 266.489 171.255C266.489 171.161 266.462 171.08 266.407 171.009C266.355 170.937 266.266 170.867 266.141 170.801C266.015 170.733 265.842 170.658 265.62 170.578C265.399 170.495 265.209 170.413 265.048 170.332C264.888 170.25 264.765 170.149 264.677 170.031C264.591 169.913 264.548 169.76 264.548 169.571C264.548 169.283 264.665 169.063 264.9 168.91C265.136 168.755 265.447 168.677 265.83 168.677C266.037 168.677 266.23 168.698 266.411 168.739C266.593 168.779 266.763 168.832 266.919 168.9L266.744 169.314C266.601 169.254 266.45 169.203 266.288 169.162C266.127 169.12 265.962 169.099 265.795 169.099C265.554 169.099 265.369 169.139 265.239 169.217C265.112 169.296 265.048 169.404 265.048 169.541C265.048 169.646 265.077 169.733 265.136 169.801C265.196 169.869 265.293 169.934 265.425 169.994C265.557 170.054 265.73 170.124 265.946 170.205C266.161 170.284 266.348 170.365 266.505 170.45C266.662 170.534 266.782 170.635 266.866 170.754C266.951 170.873 266.995 171.025 266.995 171.211Z" fill="#171717"/>
<path d="M270.791 168.683C271.202 168.683 271.506 168.774 271.705 168.956C271.904 169.139 272.004 169.429 272.004 169.829V172.143H271.624L271.523 171.64H271.498C271.402 171.764 271.301 171.869 271.197 171.954C271.091 172.036 270.97 172.1 270.832 172.143C270.696 172.185 270.528 172.205 270.329 172.205C270.12 172.205 269.934 172.169 269.77 172.096C269.61 172.024 269.481 171.915 269.388 171.768C269.295 171.62 269.249 171.434 269.249 171.208C269.249 170.869 269.385 170.607 269.657 170.426C269.929 170.243 270.344 170.144 270.901 170.127L271.494 170.103V169.895C271.494 169.6 271.431 169.394 271.303 169.276C271.175 169.158 270.995 169.099 270.763 169.099C270.583 169.099 270.411 169.125 270.247 169.177C270.084 169.229 269.929 169.29 269.783 169.36L269.623 168.969C269.778 168.89 269.956 168.823 270.156 168.767C270.358 168.711 270.569 168.683 270.791 168.683ZM271.488 170.466L270.964 170.488C270.535 170.504 270.232 170.573 270.056 170.696C269.88 170.818 269.792 170.991 269.792 171.215C269.792 171.409 269.852 171.553 269.971 171.646C270.091 171.74 270.249 171.786 270.446 171.786C270.751 171.786 271.002 171.702 271.197 171.534C271.391 171.367 271.488 171.115 271.488 170.78V170.466Z" fill="#171717"/>
<path d="M275.272 172.143H274.749V167.31H275.272V172.143Z" fill="#171717"/>
<path d="M277.701 168.677C277.993 168.677 278.245 168.741 278.454 168.87C278.664 168.998 278.824 169.178 278.935 169.41C279.045 169.64 279.102 169.909 279.102 170.218V170.537H276.724C276.73 170.937 276.831 171.241 277.026 171.451C277.22 171.66 277.494 171.764 277.848 171.764C278.066 171.764 278.259 171.745 278.426 171.705C278.594 171.666 278.767 171.608 278.948 171.532V171.984C278.773 172.062 278.601 172.117 278.429 172.153C278.26 172.187 278.059 172.205 277.827 172.205C277.496 172.205 277.207 172.139 276.959 172.007C276.714 171.872 276.524 171.675 276.388 171.416C276.252 171.158 276.184 170.841 276.184 170.466C276.184 170.1 276.246 169.783 276.369 169.515C276.495 169.247 276.671 169.039 276.897 168.894C277.125 168.749 277.393 168.677 277.701 168.677ZM277.694 169.099C277.416 169.099 277.194 169.189 277.029 169.37C276.863 169.55 276.764 169.801 276.734 170.124H278.555C278.553 169.921 278.521 169.744 278.458 169.59C278.397 169.434 278.304 169.315 278.178 169.23C278.052 169.143 277.891 169.099 277.694 169.099Z" fill="#171717"/>
<path d="M281.616 168.677C282.025 168.677 282.334 168.776 282.543 168.975C282.753 169.172 282.857 169.489 282.857 169.925V172.143H282.342V169.959C282.342 169.676 282.276 169.463 282.144 169.323C282.014 169.182 281.815 169.112 281.544 169.112C281.163 169.112 280.895 169.219 280.74 169.432C280.586 169.645 280.508 169.954 280.508 170.36V172.143H279.987V168.739H280.408L280.486 169.23H280.514C280.587 169.11 280.681 169.009 280.794 168.928C280.907 168.846 281.034 168.784 281.174 168.742C281.314 168.699 281.462 168.677 281.616 168.677Z" fill="#171717"/>
<path d="M285.156 172.205C284.721 172.205 284.376 172.058 284.12 171.764C283.866 171.471 283.74 171.033 283.74 170.454C283.74 169.868 283.87 169.425 284.129 169.127C284.389 168.827 284.734 168.677 285.166 168.677C285.348 168.677 285.507 168.701 285.643 168.748C285.779 168.796 285.896 168.86 285.995 168.941C286.094 169.02 286.176 169.11 286.243 169.211H286.281C286.272 169.147 286.264 169.059 286.255 168.947C286.247 168.836 286.243 168.744 286.243 168.673V167.31H286.764V172.143H286.344L286.264 171.659H286.243C286.178 171.76 286.095 171.852 285.995 171.935C285.896 172.018 285.778 172.084 285.64 172.134C285.504 172.182 285.343 172.205 285.156 172.205ZM285.238 171.776C285.606 171.776 285.867 171.674 286.02 171.466C286.173 171.259 286.249 170.952 286.249 170.544V170.45C286.249 170.018 286.176 169.685 286.029 169.453C285.885 169.221 285.621 169.106 285.238 169.106C284.917 169.106 284.677 169.228 284.518 169.472C284.359 169.714 284.28 170.045 284.28 170.466C284.28 170.884 284.359 171.207 284.516 171.435C284.675 171.663 284.916 171.776 285.238 171.776Z" fill="#171717"/>
<path d="M289.195 168.677C289.488 168.677 289.739 168.741 289.949 168.87C290.158 168.998 290.318 169.178 290.429 169.41C290.54 169.64 290.595 169.909 290.595 170.218V170.537H288.218C288.225 170.937 288.325 171.241 288.52 171.451C288.714 171.66 288.988 171.764 289.342 171.764C289.56 171.764 289.753 171.745 289.92 171.705C290.087 171.666 290.262 171.608 290.441 171.532V171.984C290.267 172.062 290.095 172.117 289.923 172.153C289.754 172.187 289.552 172.205 289.32 172.205C288.989 172.205 288.701 172.139 288.453 172.007C288.208 171.872 288.018 171.675 287.882 171.416C287.746 171.158 287.678 170.841 287.678 170.466C287.678 170.1 287.74 169.783 287.863 169.515C287.989 169.247 288.164 169.039 288.39 168.894C288.619 168.749 288.887 168.677 289.195 168.677ZM289.188 169.099C288.91 169.099 288.688 169.189 288.522 169.37C288.357 169.55 288.259 169.801 288.227 170.124H290.049C290.046 169.921 290.014 169.744 289.951 169.59C289.891 169.434 289.797 169.315 289.672 169.23C289.546 169.143 289.386 169.099 289.188 169.099Z" fill="#171717"/>
<path d="M293.045 168.677C293.114 168.677 293.186 168.681 293.261 168.69C293.337 168.695 293.404 168.705 293.463 168.718L293.396 169.196C293.34 169.181 293.277 169.169 293.208 169.162C293.139 169.153 293.074 169.149 293.014 169.149C292.875 169.149 292.744 169.177 292.621 169.233C292.499 169.287 292.393 169.366 292.3 169.469C292.208 169.57 292.136 169.694 292.084 169.839C292.031 169.981 292.005 170.141 292.005 170.317V172.143H291.481V168.739H291.914L291.971 169.367H291.993C292.064 169.24 292.149 169.125 292.25 169.022C292.351 168.916 292.467 168.832 292.598 168.77C292.733 168.708 292.882 168.677 293.045 168.677Z" fill="#171717"/>
<path d="M298.01 171.211C298.01 171.429 297.954 171.612 297.844 171.761C297.735 171.908 297.578 172.019 297.373 172.093C297.169 172.168 296.927 172.205 296.644 172.205C296.403 172.205 296.195 172.187 296.019 172.149C295.843 172.112 295.689 172.059 295.558 171.991V171.516C295.698 171.584 295.865 171.646 296.059 171.702C296.254 171.758 296.453 171.786 296.656 171.786C296.954 171.786 297.169 171.738 297.304 171.643C297.437 171.548 297.504 171.419 297.504 171.255C297.504 171.161 297.477 171.08 297.423 171.009C297.37 170.937 297.282 170.867 297.156 170.801C297.03 170.733 296.856 170.658 296.634 170.578C296.415 170.495 296.224 170.413 296.063 170.332C295.904 170.25 295.78 170.149 295.692 170.031C295.606 169.913 295.564 169.76 295.564 169.571C295.564 169.283 295.681 169.063 295.916 168.91C296.152 168.755 296.462 168.677 296.845 168.677C297.052 168.677 297.246 168.698 297.426 168.739C297.608 168.779 297.777 168.832 297.935 168.9L297.759 169.314C297.617 169.254 297.464 169.203 297.304 169.162C297.142 169.12 296.978 169.099 296.81 169.099C296.57 169.099 296.384 169.139 296.254 169.217C296.127 169.296 296.063 169.404 296.063 169.541C296.063 169.646 296.093 169.733 296.15 169.801C296.212 169.869 296.308 169.934 296.44 169.994C296.571 170.054 296.746 170.124 296.961 170.205C297.177 170.284 297.363 170.365 297.52 170.45C297.677 170.534 297.798 170.635 297.881 170.754C297.967 170.873 298.01 171.025 298.01 171.211Z" fill="#171717"/>
<path d="M300.174 168.677C300.467 168.677 300.718 168.741 300.928 168.87C301.137 168.998 301.297 169.178 301.408 169.41C301.519 169.64 301.574 169.909 301.574 170.218V170.537H299.197C299.204 170.937 299.304 171.241 299.499 171.451C299.693 171.66 299.967 171.764 300.321 171.764C300.539 171.764 300.732 171.745 300.899 171.705C301.067 171.666 301.241 171.608 301.421 171.532V171.984C301.246 172.062 301.074 172.117 300.902 172.153C300.733 172.187 300.532 172.205 300.299 172.205C299.968 172.205 299.68 172.139 299.432 172.007C299.187 171.872 298.997 171.675 298.861 171.416C298.725 171.158 298.657 170.841 298.657 170.466C298.657 170.1 298.719 169.783 298.842 169.515C298.968 169.247 299.143 169.039 299.369 168.894C299.598 168.749 299.866 168.677 300.174 168.677ZM300.167 169.099C299.889 169.099 299.667 169.189 299.501 169.37C299.336 169.55 299.238 169.801 299.206 170.124H301.028C301.026 169.921 300.993 169.744 300.931 169.59C300.87 169.434 300.777 169.315 300.651 169.23C300.525 169.143 300.365 169.099 300.167 169.099Z" fill="#171717"/>
<path d="M303.785 168.677C304.079 168.677 304.33 168.741 304.539 168.87C304.748 168.998 304.909 169.178 305.02 169.41C305.131 169.64 305.186 169.909 305.186 170.218V170.537H302.809C302.815 170.937 302.915 171.241 303.11 171.451C303.305 171.66 303.58 171.764 303.933 171.764C304.151 171.764 304.343 171.745 304.511 171.705C304.678 171.666 304.852 171.608 305.032 171.532V171.984C304.859 172.062 304.686 172.117 304.514 172.153C304.344 172.187 304.144 172.205 303.911 172.205C303.58 172.205 303.291 172.139 303.045 172.007C302.8 171.872 302.609 171.675 302.473 171.416C302.337 171.158 302.269 170.841 302.269 170.466C302.269 170.1 302.33 169.783 302.454 169.515C302.579 169.247 302.756 169.039 302.982 168.894C303.21 168.749 303.478 168.677 303.785 168.677ZM303.78 169.099C303.501 169.099 303.279 169.189 303.114 169.37C302.948 169.55 302.85 169.801 302.818 170.124H304.639C304.638 169.921 304.605 169.744 304.542 169.59C304.482 169.434 304.388 169.315 304.263 169.23C304.138 169.143 303.976 169.099 303.78 169.099Z" fill="#171717"/>
<path d="M311.48 168.677C311.858 168.677 312.144 168.775 312.337 168.972C312.529 169.167 312.626 169.48 312.626 169.913V172.143H312.111V169.938C312.111 169.663 312.05 169.457 311.929 169.32C311.809 169.181 311.631 169.112 311.395 169.112C311.062 169.112 310.82 169.207 310.669 169.397C310.519 169.588 310.443 169.869 310.443 170.239V172.143H309.925V169.938C309.925 169.754 309.898 169.6 309.843 169.479C309.791 169.356 309.712 169.265 309.604 169.205C309.5 169.143 309.367 169.112 309.206 169.112C308.978 169.112 308.795 169.158 308.656 169.252C308.518 169.344 308.418 169.484 308.355 169.668C308.294 169.85 308.264 170.075 308.264 170.342V172.143H307.743V168.739H308.163L308.242 169.22H308.27C308.339 169.102 308.426 169.003 308.53 168.922C308.636 168.842 308.752 168.78 308.882 168.739C309.012 168.698 309.15 168.677 309.297 168.677C309.558 168.677 309.777 168.725 309.953 168.823C310.131 168.918 310.26 169.064 310.339 169.261H310.368C310.481 169.064 310.636 168.918 310.833 168.823C311.03 168.725 311.245 168.677 311.48 168.677Z" fill="#171717"/>
<path d="M315.022 168.677C315.315 168.677 315.566 168.741 315.775 168.87C315.984 168.998 316.145 169.178 316.256 169.41C316.367 169.64 316.422 169.909 316.422 170.218V170.537H314.045C314.051 170.937 314.152 171.241 314.346 171.451C314.541 171.66 314.815 171.764 315.17 171.764C315.387 171.764 315.58 171.745 315.747 171.705C315.915 171.666 316.088 171.608 316.268 171.532V171.984C316.095 172.062 315.921 172.117 315.751 172.153C315.58 172.187 315.38 172.205 315.148 172.205C314.817 172.205 314.528 172.139 314.281 172.007C314.035 171.872 313.845 171.675 313.709 171.416C313.572 171.158 313.504 170.841 313.504 170.466C313.504 170.1 313.566 169.783 313.69 169.515C313.816 169.247 313.992 169.039 314.218 168.894C314.446 168.749 314.714 168.677 315.022 168.677ZM315.016 169.099C314.737 169.099 314.515 169.189 314.35 169.37C314.184 169.55 314.086 169.801 314.055 170.124H315.876C315.874 169.921 315.842 169.744 315.779 169.59C315.717 169.434 315.625 169.315 315.499 169.23C315.374 169.143 315.212 169.099 315.016 169.099Z" fill="#171717"/>
<path d="M317.663 170.882V170.721C317.663 170.555 317.679 170.413 317.711 170.295C317.742 170.175 317.797 170.063 317.874 169.959C317.953 169.856 318.064 169.746 318.204 169.631C318.367 169.496 318.496 169.382 318.59 169.288C318.686 169.193 318.755 169.098 318.797 169.003C318.839 168.908 318.86 168.793 318.86 168.658C318.86 168.443 318.79 168.278 318.65 168.165C318.509 168.048 318.311 167.99 318.056 167.99C317.848 167.99 317.665 168.016 317.503 168.068C317.342 168.12 317.187 168.182 317.039 168.255L316.856 167.838C317.028 167.749 317.214 167.677 317.416 167.621C317.616 167.565 317.84 167.537 318.087 167.537C318.491 167.537 318.804 167.636 319.026 167.835C319.248 168.032 319.359 168.303 319.359 168.649C319.359 168.842 319.327 169.006 319.265 169.143C319.202 169.277 319.113 169.401 318.998 169.515C318.883 169.627 318.747 169.746 318.59 169.873C318.451 169.988 318.346 170.091 318.273 170.18C318.2 170.267 318.149 170.357 318.121 170.45C318.094 170.541 318.081 170.652 318.081 170.78V170.882H317.663ZM317.525 171.821C317.525 171.675 317.56 171.573 317.629 171.513C317.698 171.451 317.787 171.42 317.896 171.42C317.998 171.42 318.085 171.451 318.156 171.513C318.23 171.573 318.266 171.675 318.266 171.821C318.266 171.963 318.23 172.068 318.156 172.134C318.085 172.199 317.998 172.23 317.896 172.23C317.787 172.23 317.698 172.199 317.629 172.134C317.56 172.068 317.525 171.963 317.525 171.821Z" fill="#171717"/>
<path d="M299.463 137.152C299.463 137.52 299.435 137.849 299.378 138.139C299.322 138.43 299.233 138.675 299.111 138.875C298.99 139.076 298.833 139.23 298.641 139.335C298.448 139.439 298.216 139.49 297.946 139.49C297.605 139.49 297.323 139.399 297.099 139.214C296.877 139.03 296.71 138.763 296.599 138.416C296.49 138.066 296.436 137.645 296.436 137.152C296.436 136.667 296.485 136.251 296.584 135.903C296.684 135.553 296.845 135.285 297.067 135.098C297.289 134.91 297.582 134.816 297.946 134.816C298.292 134.816 298.576 134.909 298.801 135.095C299.024 135.28 299.191 135.547 299.3 135.897C299.409 136.245 299.463 136.663 299.463 137.152ZM296.96 137.152C296.96 137.574 296.993 137.926 297.058 138.208C297.123 138.489 297.227 138.7 297.372 138.841C297.518 138.98 297.71 139.05 297.946 139.05C298.183 139.05 298.374 138.98 298.518 138.841C298.665 138.702 298.77 138.492 298.835 138.21C298.902 137.929 298.936 137.576 298.936 137.152C298.936 136.736 298.903 136.387 298.838 136.108C298.774 135.826 298.669 135.615 298.524 135.474C298.38 135.332 298.188 135.26 297.946 135.26C297.705 135.26 297.513 135.332 297.369 135.474C297.224 135.615 297.119 135.826 297.055 136.108C296.992 136.387 296.96 136.736 296.96 137.152Z" fill="#171717"/>
<path d="M355.557 198.94H199.956C198.077 198.94 196.554 200.461 196.554 202.338V240.562C196.554 242.438 198.077 243.96 199.956 243.96H355.557C357.435 243.96 358.958 242.438 358.958 240.562V202.338C358.958 200.461 357.435 198.94 355.557 198.94Z" fill="white"/>
<path d="M333.263 217.419H221.224C218.953 217.419 217.112 219.257 217.112 221.525C217.112 223.793 218.953 225.632 221.224 225.632H333.263C335.533 225.632 337.374 223.793 337.374 221.525C337.374 219.257 335.533 217.419 333.263 217.419Z" fill="#F3F3F3"/>
<g filter="url(#filter3_ddd_4137_17517)">
<path fill-rule="evenodd" clip-rule="evenodd" d="M130.396 85.6276C127.578 85.6276 125.293 87.9094 125.293 90.7241V138.07C125.293 140.885 127.578 143.167 130.396 143.167H177.477C178.59 147.464 182.593 153.224 192.559 154.865C194.768 155.229 195.959 152.591 194.748 150.712C192.405 147.077 192.467 144.684 193.312 143.167H198.377C201.195 143.167 203.48 140.885 203.48 138.07V90.7241C203.48 87.9094 201.195 85.6276 198.377 85.6276H130.396Z" fill="white"/>
</g>
<path d="M184.768 105.164H171.16C169.751 105.164 168.609 106.305 168.609 107.713C168.609 109.12 169.751 110.261 171.16 110.261H184.768C186.177 110.261 187.319 109.12 187.319 107.713C187.319 106.305 186.177 105.164 184.768 105.164Z" fill="#F1F1F1"/>
<path d="M189.02 116.207H171.16C169.751 116.207 168.609 117.348 168.609 118.755C168.609 120.163 169.751 121.304 171.16 121.304H189.02C190.43 121.304 191.572 120.163 191.572 118.755C191.572 117.348 190.43 116.207 189.02 116.207Z" fill="#F1F1F1"/>
<path d="M137.991 113.659C137.991 107.091 143.322 101.767 149.898 101.767C156.474 101.767 161.805 107.091 161.805 113.659C161.805 120.226 156.474 125.551 149.898 125.551C143.322 125.551 137.991 120.226 137.991 113.659Z" fill="#E6F5E7"/>
<path d="M150.603 118.466V110.559L154.062 114.013C154.338 114.29 154.792 114.29 155.068 114.013C155.344 113.737 155.344 113.291 155.068 113.015L150.398 108.351C150.121 108.075 149.675 108.075 149.398 108.351L144.728 113.015C144.451 113.291 144.451 113.737 144.728 114.013C144.86 114.146 145.04 114.22 145.227 114.22C145.415 114.22 145.594 114.146 145.727 114.013L149.186 110.559V118.466C149.186 118.855 149.505 119.174 149.894 119.174C150.284 119.174 150.603 118.855 150.603 118.466Z" fill="#2CAC41"/>
<path d="M355.819 252.206H200.218C198.34 252.206 196.816 253.728 196.816 255.604V342.229C196.816 344.105 198.34 345.626 200.218 345.626H355.819C357.698 345.626 359.221 344.105 359.221 342.229V255.604C359.221 253.728 357.698 252.206 355.819 252.206Z" fill="white"/>
<path d="M278.879 313.021C291.935 313.021 302.52 302.449 302.52 289.409C302.52 276.368 291.935 265.797 278.879 265.797C265.822 265.797 255.237 276.368 255.237 289.409C255.237 302.449 265.822 313.021 278.879 313.021Z" fill="#E2F2FF"/>
<path d="M271.631 288.798L271.87 288.779H277.386V297.915H265.546V295.402C265.546 293.98 266.005 292.596 266.853 291.453C267.99 289.924 269.73 288.956 271.631 288.798Z" fill="#1C9E8D"/>
<path d="M282.465 288.798L282.226 288.779H276.71V297.915H288.55V295.402C288.55 293.98 288.091 292.596 287.243 291.453C286.106 289.924 284.366 288.956 282.465 288.798Z" fill="#1C9E8D"/>
<path d="M280.211 284.75H274.022V289.318H280.211V284.75Z" fill="#F2CEA5"/>
<path d="M276.555 286.988C280.405 286.988 283.526 283.871 283.526 280.026C283.526 276.181 280.405 273.063 276.555 273.063C272.705 273.063 269.583 276.181 269.583 280.026C269.583 283.871 272.705 286.988 276.555 286.988Z" fill="#FFDFBA"/>
<path d="M277.789 288.779H276.174V295.766H277.789V288.779Z" fill="#127061"/>
<path d="M272.008 288.908L273.891 287.564L276.986 288.908L274.834 291.998L272.008 288.908Z" fill="#85D0C6"/>
<path d="M282.091 288.908L280.208 287.564L276.979 288.908L279.132 291.998L282.091 288.908Z" fill="#85D0C6"/>
<path d="M291.699 294.897H280.47C279.53 294.897 278.769 295.658 278.769 296.596V299.774C278.769 300.712 279.53 301.473 280.47 301.473H291.699C292.638 301.473 293.4 300.712 293.4 299.774V296.596C293.4 295.658 292.638 294.897 291.699 294.897Z" fill="#61A5C3"/>
<path d="M286.949 288.44H285.224C284.285 288.44 283.523 289.2 283.523 290.139V291.618C283.523 292.556 284.285 293.317 285.224 293.317H286.949C287.889 293.317 288.65 292.556 288.65 291.618V290.139C288.65 289.2 287.889 288.44 286.949 288.44Z" stroke="#61A5C3" stroke-width="2"/>
<path d="M292.186 290.271H279.982C279.042 290.271 278.281 291.032 278.281 291.97V296.366C278.281 297.304 279.042 298.064 279.982 298.064H292.186C293.126 298.064 293.887 297.304 293.887 296.366V291.97C293.887 291.032 293.126 290.271 292.186 290.271Z" fill="#005A76"/>
<path fill-rule="evenodd" clip-rule="evenodd" d="M287.525 298.064H284.64C284.626 297.984 284.62 297.901 284.62 297.818C284.62 297.011 285.275 296.357 286.082 296.357C286.89 296.357 287.545 297.011 287.545 297.818C287.545 297.901 287.539 297.984 287.525 298.064Z" fill="#86C1DB"/>
<path fill-rule="evenodd" clip-rule="evenodd" d="M284.64 298.064C284.756 298.753 285.358 299.279 286.082 299.279C286.89 299.279 287.545 298.625 287.545 297.818C287.545 297.792 287.545 297.766 287.543 297.739C287.103 297.947 286.611 298.064 286.091 298.064H284.64Z" fill="#CBF3FF"/>
<path d="M282.186 290.271H280.723V298.064H282.186V290.271Z" fill="#A7DCF3"/>
<path d="M291.451 290.271H289.988V298.064H291.451V290.271Z" fill="#A7DCF3"/>
<g filter="url(#filter4_ddd_4137_17517)">
<path fill-rule="evenodd" clip-rule="evenodd" d="M418.897 192.16C421.715 192.16 424 194.442 424 197.257V244.603C424 247.418 421.715 249.7 418.897 249.7H371.816C370.703 253.997 366.7 259.757 356.734 261.398C354.525 261.762 353.334 259.124 354.545 257.244C356.888 253.61 356.826 251.217 355.981 249.7H350.916C348.098 249.7 345.813 247.418 345.813 244.603V197.257C345.813 194.442 348.098 192.16 350.916 192.16H418.897Z" fill="white"/>
</g>
<path d="M405.29 212.068H391.682C390.273 212.068 389.13 213.209 389.13 214.616C389.13 216.023 390.273 217.164 391.682 217.164H405.29C406.699 217.164 407.841 216.023 407.841 214.616C407.841 213.209 406.699 212.068 405.29 212.068Z" fill="#F1F1F1"/>
<path d="M409.542 223.11H391.682C390.273 223.11 389.13 224.251 389.13 225.659C389.13 227.066 390.273 228.207 391.682 228.207H409.542C410.951 228.207 412.094 227.066 412.094 225.659C412.094 224.251 410.951 223.11 409.542 223.11Z" fill="#F1F1F1"/>
<path d="M358.573 219.712C358.573 226.28 363.903 231.604 370.479 231.604C377.055 231.604 382.386 226.28 382.386 219.712C382.386 213.145 377.055 207.82 370.479 207.82C363.903 207.82 358.573 213.145 358.573 219.712Z" fill="#FFEAEE"/>
<path d="M371.185 214.905V222.811L374.643 219.357C374.92 219.081 375.373 219.081 375.65 219.357C375.926 219.633 375.926 220.079 375.65 220.355L370.98 225.02C370.703 225.296 370.257 225.296 369.98 225.02L365.309 220.355C365.033 220.079 365.033 219.633 365.309 219.357C365.442 219.225 365.621 219.15 365.809 219.15C365.997 219.15 366.176 219.225 366.309 219.357L369.768 222.811V214.905C369.768 214.516 370.087 214.197 370.476 214.197C370.866 214.197 371.185 214.516 371.185 214.905Z" fill="#F51830"/>
</g>
<defs>
<filter id="filter0_d_4137_17517" x="151.993" y="1.25049" width="249.865" height="456.876" filterUnits="userSpaceOnUse" color-interpolation-filters="sRGB">
<feFlood flood-opacity="0" result="BackgroundImageFix"/>
<feColorMatrix in="SourceAlpha" type="matrix" values="0 0 0 0 0 0 0 0 0 0 0 0 0 0 0 0 0 0 127 0" result="hardAlpha"/>
<feOffset/>
<feGaussianBlur stdDeviation="12.5"/>
<feComposite in2="hardAlpha" operator="out"/>
<feColorMatrix type="matrix" values="0 0 0 0 0 0 0 0 0 0 0 0 0 0 0 0 0 0 0.25 0"/>
<feBlend mode="normal" in2="BackgroundImageFix" result="effect1_dropShadow_4137_17517"/>
<feBlend mode="normal" in="SourceGraphic" in2="effect1_dropShadow_4137_17517" result="shape"/>
</filter>
<filter id="filter1_i_4137_17517" x="181.245" y="30.4977" width="191.36" height="398.382" filterUnits="userSpaceOnUse" color-interpolation-filters="sRGB">
<feFlood flood-opacity="0" result="BackgroundImageFix"/>
<feBlend mode="normal" in="SourceGraphic" in2="BackgroundImageFix" result="shape"/>
<feColorMatrix in="SourceAlpha" type="matrix" values="0 0 0 0 0 0 0 0 0 0 0 0 0 0 0 0 0 0 127 0" result="hardAlpha"/>
<feOffset/>
<feGaussianBlur stdDeviation="4.5"/>
<feComposite in2="hardAlpha" operator="arithmetic" k2="-1" k3="1"/>
<feColorMatrix type="matrix" values="0 0 0 0 0.421785 0 0 0 0 0.421785 0 0 0 0 0.421785 0 0 0 0.09 0"/>
<feBlend mode="normal" in2="shape" result="effect1_innerShadow_4137_17517"/>
</filter>
<filter id="filter2_d_4137_17517" x="185.327" y="34.2932" width="181.753" height="387.092" filterUnits="userSpaceOnUse" color-interpolation-filters="sRGB">
<feFlood flood-opacity="0" result="BackgroundImageFix"/>
<feColorMatrix in="SourceAlpha" type="matrix" values="0 0 0 0 0 0 0 0 0 0 0 0 0 0 0 0 0 0 127 0" result="hardAlpha"/>
<feOffset dy="-1"/>
<feGaussianBlur stdDeviation="1"/>
<feComposite in2="hardAlpha" operator="out"/>
<feColorMatrix type="matrix" values="0 0 0 0 0 0 0 0 0 0 0 0 0 0 0 0 0 0 0.01 0"/>
<feBlend mode="normal" in2="BackgroundImageFix" result="effect1_dropShadow_4137_17517"/>
<feBlend mode="normal" in="SourceGraphic" in2="effect1_dropShadow_4137_17517" result="shape"/>
</filter>
<filter id="filter3_ddd_4137_17517" x="107.293" y="68.6276" width="114.187" height="105.272" filterUnits="userSpaceOnUse" color-interpolation-filters="sRGB">
<feFlood flood-opacity="0" result="BackgroundImageFix"/>
<feColorMatrix in="SourceAlpha" type="matrix" values="0 0 0 0 0 0 0 0 0 0 0 0 0 0 0 0 0 0 127 0" result="hardAlpha"/>
<feOffset dy="3"/>
<feGaussianBlur stdDeviation="2.5"/>
<feColorMatrix type="matrix" values="0 0 0 0 0 0 0 0 0 0 0 0 0 0 0 0 0 0 0.14 0"/>
<feBlend mode="normal" in2="BackgroundImageFix" result="effect1_dropShadow_4137_17517"/>
<feColorMatrix in="SourceAlpha" type="matrix" values="0 0 0 0 0 0 0 0 0 0 0 0 0 0 0 0 0 0 127 0" result="hardAlpha"/>
<feOffset dy="1"/>
<feGaussianBlur stdDeviation="9"/>
<feColorMatrix type="matrix" values="0 0 0 0 0 0 0 0 0 0 0 0 0 0 0 0 0 0 0.12 0"/>
<feBlend mode="normal" in2="effect1_dropShadow_4137_17517" result="effect2_dropShadow_4137_17517"/>
<feColorMatrix in="SourceAlpha" type="matrix" values="0 0 0 0 0 0 0 0 0 0 0 0 0 0 0 0 0 0 127 0" result="hardAlpha"/>
<feOffset dy="6"/>
<feGaussianBlur stdDeviation="5"/>
<feColorMatrix type="matrix" values="0 0 0 0 0 0 0 0 0 0 0 0 0 0 0 0 0 0 0.1 0"/>
<feBlend mode="normal" in2="effect2_dropShadow_4137_17517" result="effect3_dropShadow_4137_17517"/>
<feBlend mode="normal" in="SourceGraphic" in2="effect3_dropShadow_4137_17517" result="shape"/>
</filter>
<filter id="filter4_ddd_4137_17517" x="327.813" y="175.16" width="114.188" height="105.272" filterUnits="userSpaceOnUse" color-interpolation-filters="sRGB">
<feFlood flood-opacity="0" result="BackgroundImageFix"/>
<feColorMatrix in="SourceAlpha" type="matrix" values="0 0 0 0 0 0 0 0 0 0 0 0 0 0 0 0 0 0 127 0" result="hardAlpha"/>
<feOffset dy="3"/>
<feGaussianBlur stdDeviation="2.5"/>
<feColorMatrix type="matrix" values="0 0 0 0 0 0 0 0 0 0 0 0 0 0 0 0 0 0 0.14 0"/>
<feBlend mode="normal" in2="BackgroundImageFix" result="effect1_dropShadow_4137_17517"/>
<feColorMatrix in="SourceAlpha" type="matrix" values="0 0 0 0 0 0 0 0 0 0 0 0 0 0 0 0 0 0 127 0" result="hardAlpha"/>
<feOffset dy="1"/>
<feGaussianBlur stdDeviation="9"/>
<feColorMatrix type="matrix" values="0 0 0 0 0 0 0 0 0 0 0 0 0 0 0 0 0 0 0.12 0"/>
<feBlend mode="normal" in2="effect1_dropShadow_4137_17517" result="effect2_dropShadow_4137_17517"/>
<feColorMatrix in="SourceAlpha" type="matrix" values="0 0 0 0 0 0 0 0 0 0 0 0 0 0 0 0 0 0 127 0" result="hardAlpha"/>
<feOffset dy="6"/>
<feGaussianBlur stdDeviation="5"/>
<feColorMatrix type="matrix" values="0 0 0 0 0 0 0 0 0 0 0 0 0 0 0 0 0 0 0.1 0"/>
<feBlend mode="normal" in2="effect2_dropShadow_4137_17517" result="effect3_dropShadow_4137_17517"/>
<feBlend mode="normal" in="SourceGraphic" in2="effect3_dropShadow_4137_17517" result="shape"/>
</filter>
<clipPath id="clip0_4137_17517">
<rect width="347" height="320" fill="white" transform="translate(103)"/>
</clipPath>
</defs>
</svg>
