<svg width="563" height="430" viewBox="0 0 563 430" fill="none" xmlns="http://www.w3.org/2000/svg">
<path d="M185.031 141.023V52.0227C184.531 42.0227 189.931 20.8227 215.531 16.0227L316.531 0.522725C327.198 -1.14394 352.031 0.222725 366.031 19.0227C373.531 26.5227 384.831 50.0227 370.031 84.0227C365 92.5 353.431 106.123 349.031 108.523C345.198 111.689 334.231 118.123 321.031 118.523L310.031 120.023L309.031 20.5227C301.198 20.5227 285.531 24.2227 285.531 39.0227V125.523L270.031 127.023L268.531 59.0227C261.365 60.1894 246.831 65.3227 246.031 76.5227V130.523L229.031 134.023L228.031 101.023C220.031 102.856 204.131 109.623 204.531 122.023V138.023L185.031 141.023Z" fill="#1566C1"/>
<path d="M228 101.023L229 134.523L246 130.023L228 101.023Z" fill="url(#paint0_linear_162_28)"/>
<path d="M268.5 59.5227L270 127.023L285.5 125.023L268.5 59.5227Z" fill="url(#paint1_linear_162_28)"/>
<path d="M309 20.5227L310 120.023L321 118.523L309 20.5227Z" fill="url(#paint2_linear_162_28)"/>
<path d="M270.5 182.5V139L287.5 135.5V186.5L279 187.5C272.2 189.9 270.5 185.167 270.5 182.5Z" fill="#38A343"/>
<path d="M311 176V131.5L336.5 129C347.5 128.5 361.494 136.994 365.5 141C378 153.5 379.428 166.491 379.5 167.5C381 188.5 376 200.5 372.5 208.5C368.164 218.41 357.5 229 350 234.5C342.186 240.23 329.143 248.484 318 251C302.5 254.5 283.167 256.667 267 259.5L214.5 266.5C205.167 268.5 186.2 272.5 185 272.5C185.667 264 187.8 246.1 191 242.5C192.833 239.5 199 232.6 209 229C218.167 226.833 236.7 223.9 241.5 223.5C250.667 222.667 269.5 219.5 271.5 218.5C279.5 217.5 297.7 215.8 302.5 213C309.5 211 323.1 205.2 325.5 202C330.833 199.5 344 192.5 342.5 178.5C343.091 172.711 343.095 161.815 339.487 155.426C337.025 153.16 334.598 151.444 333 150.5L335 159.5C336 163 334.5 168 333.5 170C332.25 172.5 326 176.667 322.5 178.5C314.5 184.1 311.5 179.167 311 176Z" fill="#38A343"/>
<path d="M186 200.5L185 152.5L206.5 149.5V187.5C206.9 198.3 202.5 198 199 199L186 200.5Z" fill="#38A343"/>
<path d="M231 187.5V145L247 142V194H238.5C232.5 194.4 231 189.833 231 187.5Z" fill="#38A343"/>
<path d="M231 145C231 145 241 177.834 246.5 194H237C232.2 194 231 189.334 231 187C231.333 172.834 230.557 145.778 231 145Z" fill="url(#paint3_linear_162_28)"/>
<path d="M270.5 139C270.5 139 282 170.333 287.5 186.5C286.333 186.5 280.3 188 275.5 188C270.7 188 270.5 183.833 270.5 181.5C270.833 167.333 270.057 139.777 270.5 139Z" fill="url(#paint4_linear_162_28)"/>
<path d="M311.14 131C311.14 131 321.5 159.333 327 175.5C323 178 319.8 179.5 315 179.5C310.2 179.5 311 175.333 311 173C311.333 158.833 310.698 131.777 311.14 131Z" fill="url(#paint5_linear_162_28)"/>
<path d="M185 272.5L214.5 266.5C214 263.5 216.5 261 219 258C221.147 255.423 229.553 247.142 239.5 242.5C247 239 256 235.667 260 235C265.5 234.083 274.833 231.333 281.5 230C288.5 228.5 305 224.667 313.5 222C325.5 217.5 329 216.5 340.5 208C344.559 205 350 196.5 351 192C352 187.5 352 178.5 349 171.5C345.987 164.47 340 153 333 150.5C333.8 151.3 339.5 160 341.5 165C343.5 170 342.476 179.5 342 181.5C339.5 192 330.5 198.667 325.5 202C319.5 206 304.683 211.106 302 212C299 213 283.698 215.884 274 217.5C271 218 261.5 219.667 256.5 220.5C247.5 222 235 224 223.5 225.5C209.806 227.286 204.5 230.5 203.5 231.5C193.1 236.3 189.167 245.167 188.5 249C187.7 249.8 185.833 265 185 272.5Z" fill="url(#paint6_linear_162_28)"/>
<path d="M7.32581 306.792H25.4413C33.1918 306.792 39.0577 307.88 43.0391 310.056C47.0206 312.233 49.0113 316.055 49.0113 321.523C49.0113 323.726 48.6529 325.717 47.9363 327.495C47.2462 329.273 46.2375 330.733 44.9104 331.875C43.5833 333.016 41.9642 333.759 40.0531 334.104V334.502C41.9907 334.9 43.7425 335.591 45.3085 336.573C46.8746 337.528 48.1221 338.935 49.0511 340.793C50.0066 342.624 50.4844 345.066 50.4844 348.119C50.4844 351.649 49.6218 354.675 47.8965 357.196C46.1712 359.718 43.7027 361.656 40.491 363.009C37.3059 364.336 33.5103 365 29.1042 365H7.32581V306.792ZM19.6682 329.844H26.8348C30.418 329.844 32.8998 329.287 34.28 328.172C35.6602 327.031 36.3504 325.358 36.3504 323.155C36.3504 320.926 35.5275 319.333 33.8819 318.378C32.2628 317.396 29.6881 316.904 26.1579 316.904H19.6682V329.844ZM19.6682 339.638V354.808H27.7107C31.4267 354.808 34.0146 354.091 35.4744 352.658C36.9343 351.224 37.6642 349.3 37.6642 346.885C37.6642 345.451 37.3457 344.19 36.7087 343.102C36.0717 342.014 34.9967 341.165 33.4837 340.554C31.9973 339.944 29.9403 339.638 27.3125 339.638H19.6682ZM119.836 335.816C119.836 340.302 119.279 344.39 118.164 348.079C117.049 351.742 115.35 354.9 113.068 357.555C110.811 360.209 107.945 362.253 104.468 363.686C100.991 365.093 96.8764 365.796 92.1253 365.796C87.3741 365.796 83.26 365.093 79.7829 363.686C76.3058 362.253 73.4259 360.209 71.1432 357.555C68.887 354.9 67.2016 351.729 66.0868 348.039C64.972 344.35 64.4146 340.249 64.4146 335.737C64.4146 329.711 65.3967 324.469 67.3608 320.01C69.3515 315.524 72.404 312.047 76.5181 309.579C80.6322 307.11 85.8612 305.876 92.2049 305.876C98.5221 305.876 103.711 307.11 107.772 309.579C111.86 312.047 114.886 315.524 116.85 320.01C118.841 324.496 119.836 329.764 119.836 335.816ZM77.3542 335.816C77.3542 339.877 77.8585 343.381 78.8671 346.327C79.9023 349.247 81.5081 351.503 83.6846 353.096C85.8612 354.662 88.6747 355.445 92.1253 355.445C95.6289 355.445 98.469 354.662 100.645 353.096C102.822 351.503 104.401 349.247 105.383 346.327C106.392 343.381 106.896 339.877 106.896 335.816C106.896 329.711 105.755 324.907 103.472 321.403C101.19 317.9 97.4338 316.148 92.2049 316.148C88.7278 316.148 85.8877 316.944 83.6846 318.537C81.5081 320.103 79.9023 322.359 78.8671 325.305C77.8585 328.225 77.3542 331.729 77.3542 335.816ZM153.753 306.792C159.035 306.792 163.388 307.429 166.812 308.703C170.262 309.977 172.824 311.901 174.496 314.476C176.168 317.05 177.004 320.302 177.004 324.23C177.004 326.885 176.5 329.207 175.491 331.198C174.483 333.188 173.156 334.874 171.51 336.254C169.864 337.634 168.086 338.762 166.175 339.638L183.295 365H169.599L155.704 342.664H149.134V365H136.792V306.792H153.753ZM152.877 316.904H149.134V332.631H153.116C157.203 332.631 160.123 331.954 161.875 330.601C163.653 329.22 164.542 327.203 164.542 324.549C164.542 321.788 163.587 319.824 161.676 318.656C159.791 317.488 156.858 316.904 152.877 316.904ZM212.474 306.792C217.756 306.792 222.109 307.429 225.533 308.703C228.984 309.977 231.545 311.901 233.217 314.476C234.889 317.05 235.725 320.302 235.725 324.23C235.725 326.885 235.221 329.207 234.213 331.198C233.204 333.188 231.877 334.874 230.231 336.254C228.585 337.634 226.807 338.762 224.896 339.638L242.016 365H228.32L214.425 342.664H207.856V365H195.513V306.792H212.474ZM211.598 316.904H207.856V332.631H211.837C215.925 332.631 218.844 331.954 220.596 330.601C222.374 329.22 223.264 327.203 223.264 324.549C223.264 321.788 222.308 319.824 220.397 318.656C218.512 317.488 215.579 316.904 211.598 316.904ZM307.068 335.816C307.068 340.302 306.51 344.39 305.396 348.079C304.281 351.742 302.582 354.9 300.299 357.555C298.043 360.209 295.177 362.253 291.699 363.686C288.222 365.093 284.108 365.796 279.357 365.796C274.606 365.796 270.492 365.093 267.015 363.686C263.538 362.253 260.658 360.209 258.375 357.555C256.119 354.9 254.433 351.729 253.319 348.039C252.204 344.35 251.646 340.249 251.646 335.737C251.646 329.711 252.628 324.469 254.593 320.01C256.583 315.524 259.636 312.047 263.75 309.579C267.864 307.11 273.093 305.876 279.437 305.876C285.754 305.876 290.943 307.11 295.004 309.579C299.092 312.047 302.118 315.524 304.082 320.01C306.072 324.496 307.068 329.764 307.068 335.816ZM264.586 335.816C264.586 339.877 265.09 343.381 266.099 346.327C267.134 349.247 268.74 351.503 270.916 353.096C273.093 354.662 275.906 355.445 279.357 355.445C282.861 355.445 285.701 354.662 287.877 353.096C290.054 351.503 291.633 349.247 292.615 346.327C293.624 343.381 294.128 339.877 294.128 335.816C294.128 329.711 292.987 324.907 290.704 321.403C288.421 317.9 284.666 316.148 279.437 316.148C275.96 316.148 273.12 316.944 270.916 318.537C268.74 320.103 267.134 322.359 266.099 325.305C265.09 328.225 264.586 331.729 264.586 335.816ZM395.53 306.792L380.719 365H366.665L358.782 334.423C358.622 333.839 358.41 332.95 358.145 331.755C357.879 330.561 357.6 329.26 357.308 327.853C357.016 326.42 356.751 325.08 356.512 323.832C356.3 322.558 356.154 321.549 356.074 320.806C355.995 321.549 355.835 322.545 355.596 323.792C355.384 325.04 355.132 326.367 354.84 327.774C354.575 329.181 354.309 330.494 354.044 331.715C353.778 332.936 353.566 333.865 353.407 334.502L345.563 365H331.549L316.698 306.792H328.841L336.287 338.563C336.499 339.519 336.738 340.66 337.003 341.987C337.295 343.315 337.574 344.708 337.839 346.168C338.131 347.601 338.383 348.995 338.596 350.348C338.835 351.676 339.007 352.83 339.113 353.812C339.246 352.804 339.419 351.636 339.631 350.309C339.843 348.955 340.069 347.588 340.308 346.208C340.573 344.801 340.839 343.5 341.104 342.306C341.369 341.111 341.608 340.143 341.821 339.399L350.301 306.792H361.967L370.447 339.399C370.633 340.116 370.845 341.085 371.084 342.306C371.35 343.5 371.615 344.801 371.88 346.208C372.146 347.614 372.385 348.995 372.597 350.348C372.836 351.676 373.009 352.83 373.115 353.812C373.3 352.485 373.553 350.879 373.871 348.995C374.216 347.084 374.575 345.186 374.946 343.301C375.344 341.417 375.689 339.837 375.981 338.563L383.387 306.792H395.53ZM479.255 306.792L464.444 365H450.389L442.506 334.423C442.347 333.839 442.134 332.95 441.869 331.755C441.604 330.561 441.325 329.26 441.033 327.853C440.741 326.42 440.476 325.08 440.237 323.832C440.024 322.558 439.878 321.549 439.799 320.806C439.719 321.549 439.56 322.545 439.321 323.792C439.109 325.04 438.856 326.367 438.564 327.774C438.299 329.181 438.034 330.494 437.768 331.715C437.503 332.936 437.29 333.865 437.131 334.502L429.288 365H415.273L400.422 306.792H412.566L420.011 338.563C420.223 339.519 420.462 340.66 420.728 341.987C421.02 343.315 421.298 344.708 421.564 346.168C421.856 347.601 422.108 348.995 422.32 350.348C422.559 351.676 422.732 352.83 422.838 353.812C422.971 352.804 423.143 351.636 423.355 350.309C423.568 348.955 423.793 347.588 424.032 346.208C424.298 344.801 424.563 343.5 424.829 342.306C425.094 341.111 425.333 340.143 425.545 339.399L434.026 306.792H445.691L454.172 339.399C454.357 340.116 454.57 341.085 454.809 342.306C455.074 343.5 455.339 344.801 455.605 346.208C455.87 347.614 456.109 348.995 456.322 350.348C456.56 351.676 456.733 352.83 456.839 353.812C457.025 352.485 457.277 350.879 457.596 348.995C457.941 347.084 458.299 345.186 458.671 343.301C459.069 341.417 459.414 339.837 459.706 338.563L467.111 306.792H479.255ZM562.979 306.792L548.168 365H534.114L526.231 334.423C526.071 333.839 525.859 332.95 525.593 331.755C525.328 330.561 525.049 329.26 524.757 327.853C524.465 326.42 524.2 325.08 523.961 323.832C523.749 322.558 523.603 321.549 523.523 320.806C523.444 321.549 523.284 322.545 523.045 323.792C522.833 325.04 522.581 326.367 522.289 327.774C522.023 329.181 521.758 330.494 521.493 331.715C521.227 332.936 521.015 333.865 520.856 334.502L513.012 365H498.998L484.147 306.792H496.29L503.735 338.563C503.948 339.519 504.187 340.66 504.452 341.987C504.744 343.315 505.023 344.708 505.288 346.168C505.58 347.601 505.832 348.995 506.045 350.348C506.284 351.676 506.456 352.83 506.562 353.812C506.695 352.804 506.868 351.636 507.08 350.309C507.292 348.955 507.518 347.588 507.757 346.208C508.022 344.801 508.288 343.5 508.553 342.306C508.818 341.111 509.057 340.143 509.27 339.399L517.75 306.792H529.416L537.896 339.399C538.082 340.116 538.294 341.085 538.533 342.306C538.799 343.5 539.064 344.801 539.329 346.208C539.595 347.614 539.834 348.995 540.046 350.348C540.285 351.676 540.457 352.83 540.564 353.812C540.749 352.485 541.002 350.879 541.32 348.995C541.665 347.084 542.023 345.186 542.395 343.301C542.793 341.417 543.138 339.837 543.43 338.563L550.836 306.792H562.979Z" fill="#1566C1"/>
<path d="M67.232 421H54.7317V399.295H67.232V403.066H59.3339V407.832H66.6827V411.603H59.3339V417.199H67.232V421ZM80.9645 421L75.7387 403.972H75.6051C75.6249 404.377 75.6546 404.991 75.6942 405.813C75.7437 406.624 75.7882 407.49 75.8278 408.411C75.8674 409.331 75.8872 410.162 75.8872 410.905V421H71.7748V399.295H78.0398L83.1765 415.893H83.2656L88.7141 399.295H94.9791V421H90.6886V410.727C90.6886 410.044 90.6985 409.257 90.7183 408.366C90.748 407.475 90.7826 406.629 90.8222 405.827C90.8618 405.016 90.8915 404.407 90.9113 404.001H90.7777L85.1807 421H80.9645ZM107.39 399.295C110.191 399.295 112.235 399.899 113.522 401.106C114.808 402.304 115.452 403.957 115.452 406.065C115.452 407.015 115.308 407.926 115.021 408.797C114.734 409.658 114.264 410.425 113.611 411.098C112.967 411.771 112.106 412.305 111.028 412.701C109.949 413.087 108.618 413.28 107.034 413.28H105.059V421H100.457V399.295H107.39ZM107.153 403.066H105.059V409.509H106.574C107.435 409.509 108.182 409.395 108.816 409.168C109.449 408.94 109.939 408.584 110.285 408.099C110.632 407.614 110.805 406.99 110.805 406.228C110.805 405.159 110.508 404.368 109.914 403.853C109.32 403.328 108.4 403.066 107.153 403.066ZM139.25 410.118C139.25 411.791 139.042 413.315 138.626 414.69C138.211 416.056 137.577 417.234 136.726 418.224C135.885 419.214 134.816 419.976 133.519 420.51C132.223 421.035 130.689 421.297 128.917 421.297C127.145 421.297 125.611 421.035 124.315 420.51C123.018 419.976 121.944 419.214 121.093 418.224C120.252 417.234 119.623 416.051 119.208 414.676C118.792 413.3 118.584 411.771 118.584 410.088C118.584 407.842 118.95 405.887 119.683 404.224C120.425 402.551 121.563 401.255 123.097 400.334C124.631 399.414 126.581 398.954 128.947 398.954C131.302 398.954 133.237 399.414 134.751 400.334C136.276 401.255 137.404 402.551 138.136 404.224C138.879 405.897 139.25 407.861 139.25 410.118ZM123.409 410.118C123.409 411.632 123.597 412.939 123.973 414.037C124.359 415.126 124.958 415.967 125.77 416.561C126.581 417.145 127.63 417.437 128.917 417.437C130.223 417.437 131.282 417.145 132.094 416.561C132.906 415.967 133.494 415.126 133.861 414.037C134.237 412.939 134.425 411.632 134.425 410.118C134.425 407.842 133.999 406.05 133.148 404.744C132.297 403.437 130.896 402.784 128.947 402.784C127.65 402.784 126.591 403.081 125.77 403.675C124.958 404.259 124.359 405.1 123.973 406.199C123.597 407.287 123.409 408.594 123.409 410.118ZM170.411 399.295L164.889 421H159.648L156.709 409.598C156.649 409.381 156.57 409.049 156.471 408.604C156.372 408.158 156.268 407.673 156.159 407.149C156.05 406.614 155.951 406.114 155.862 405.649C155.783 405.174 155.729 404.798 155.699 404.521C155.669 404.798 155.61 405.169 155.521 405.634C155.442 406.1 155.348 406.594 155.239 407.119C155.14 407.644 155.041 408.133 154.942 408.589C154.843 409.044 154.764 409.39 154.704 409.628L151.78 421H146.554L141.016 399.295H145.544L148.321 411.142C148.4 411.499 148.489 411.924 148.588 412.419C148.697 412.914 148.801 413.434 148.9 413.978C149.009 414.512 149.103 415.032 149.182 415.537C149.271 416.032 149.335 416.462 149.375 416.828C149.424 416.452 149.489 416.017 149.568 415.522C149.647 415.017 149.731 414.507 149.82 413.993C149.919 413.468 150.018 412.983 150.117 412.538C150.216 412.092 150.305 411.731 150.384 411.454L153.546 399.295H157.896L161.058 411.454C161.128 411.721 161.207 412.083 161.296 412.538C161.395 412.983 161.494 413.468 161.593 413.993C161.692 414.517 161.781 415.032 161.86 415.537C161.949 416.032 162.014 416.462 162.053 416.828C162.122 416.333 162.216 415.735 162.335 415.032C162.464 414.319 162.598 413.612 162.736 412.909C162.885 412.206 163.013 411.617 163.122 411.142L165.883 399.295H170.411ZM185.643 421H173.143V399.295H185.643V403.066H177.745V407.832H185.094V411.603H177.745V417.199H185.643V421ZM196.511 399.295C198.48 399.295 200.103 399.533 201.38 400.008C202.667 400.483 203.622 401.2 204.245 402.16C204.869 403.121 205.181 404.333 205.181 405.798C205.181 406.787 204.993 407.653 204.617 408.396C204.24 409.138 203.746 409.767 203.132 410.281C202.518 410.796 201.855 411.217 201.143 411.543L207.526 421H202.419L197.238 412.671H194.789V421H190.186V399.295H196.511ZM196.184 403.066H194.789V408.93H196.273C197.797 408.93 198.886 408.678 199.539 408.173C200.202 407.658 200.534 406.906 200.534 405.916C200.534 404.887 200.178 404.155 199.465 403.719C198.762 403.284 197.669 403.066 196.184 403.066ZM210.258 421V399.295H214.86V421H210.258ZM239.579 421H233.73L224.287 404.58H224.154C224.193 405.263 224.228 405.951 224.258 406.644C224.287 407.337 224.317 408.03 224.347 408.722C224.377 409.405 224.406 410.093 224.436 410.786V421H220.324V399.295H226.128L235.556 415.552H235.659C235.64 414.879 235.615 414.21 235.585 413.547C235.556 412.884 235.526 412.221 235.496 411.558C235.476 410.895 235.457 410.232 235.437 409.569V399.295H239.579V421ZM253.297 408.811H261.907V420.065C260.769 420.441 259.586 420.743 258.359 420.97C257.132 421.188 255.741 421.297 254.187 421.297C252.03 421.297 250.199 420.871 248.694 420.02C247.19 419.169 246.047 417.912 245.265 416.249C244.483 414.587 244.092 412.543 244.092 410.118C244.092 407.842 244.527 405.872 245.398 404.209C246.279 402.546 247.561 401.26 249.244 400.349C250.936 399.439 253 398.983 255.434 398.983C256.582 398.983 257.716 399.107 258.834 399.355C259.952 399.602 260.967 399.924 261.877 400.32L260.348 404.001C259.685 403.665 258.928 403.383 258.077 403.155C257.226 402.928 256.335 402.814 255.405 402.814C254.068 402.814 252.906 403.121 251.916 403.734C250.936 404.348 250.174 405.209 249.63 406.317C249.095 407.416 248.828 408.712 248.828 410.207C248.828 411.622 249.021 412.879 249.407 413.978C249.793 415.067 250.402 415.923 251.233 416.546C252.064 417.16 253.148 417.467 254.484 417.467C255.137 417.467 255.687 417.437 256.132 417.378C256.587 417.308 257.013 417.239 257.409 417.17V412.642H253.297V408.811ZM281.741 408.232L286.269 399.295H291.228L284.028 412.553V421H279.455V412.701L272.255 399.295H277.243L281.741 408.232ZM313.66 410.118C313.66 411.791 313.452 413.315 313.037 414.69C312.621 416.056 311.988 417.234 311.136 418.224C310.295 419.214 309.226 419.976 307.93 420.51C306.633 421.035 305.099 421.297 303.327 421.297C301.556 421.297 300.022 421.035 298.725 420.51C297.429 419.976 296.355 419.214 295.504 418.224C294.662 417.234 294.034 416.051 293.618 414.676C293.202 413.3 292.995 411.771 292.995 410.088C292.995 407.842 293.361 405.887 294.093 404.224C294.836 402.551 295.974 401.255 297.508 400.334C299.042 399.414 300.992 398.954 303.357 398.954C305.713 398.954 307.648 399.414 309.162 400.334C310.686 401.255 311.814 402.551 312.547 404.224C313.289 405.897 313.66 407.861 313.66 410.118ZM297.82 410.118C297.82 411.632 298.008 412.939 298.384 414.037C298.77 415.126 299.368 415.967 300.18 416.561C300.992 417.145 302.041 417.437 303.327 417.437C304.634 417.437 305.693 417.145 306.504 416.561C307.316 415.967 307.905 415.126 308.271 414.037C308.647 412.939 308.835 411.632 308.835 410.118C308.835 407.842 308.41 406.05 307.559 404.744C306.707 403.437 305.307 402.784 303.357 402.784C302.061 402.784 301.002 403.081 300.18 403.675C299.368 404.259 298.77 405.1 298.384 406.199C298.008 407.287 297.82 408.594 297.82 410.118ZM335.825 399.295V413.339C335.825 414.834 335.494 416.185 334.831 417.392C334.177 418.59 333.183 419.54 331.847 420.243C330.52 420.946 328.848 421.297 326.829 421.297C323.958 421.297 321.771 420.565 320.267 419.1C318.762 417.635 318.01 415.695 318.01 413.28V399.295H322.597V412.582C322.597 414.374 322.964 415.631 323.696 416.353C324.428 417.076 325.512 417.437 326.947 417.437C327.957 417.437 328.773 417.264 329.397 416.917C330.03 416.571 330.496 416.036 330.792 415.314C331.089 414.591 331.238 413.671 331.238 412.553V399.295H335.825ZM347.464 399.295C349.434 399.295 351.057 399.533 352.334 400.008C353.621 400.483 354.576 401.2 355.199 402.16C355.823 403.121 356.135 404.333 356.135 405.798C356.135 406.787 355.946 407.653 355.57 408.396C355.194 409.138 354.699 409.767 354.086 410.281C353.472 410.796 352.809 411.217 352.096 411.543L358.48 421H353.373L348.192 412.671H345.742V421H341.14V399.295H347.464ZM347.138 403.066H345.742V408.93H347.227C348.751 408.93 349.84 408.678 350.493 408.173C351.156 407.658 351.488 406.906 351.488 405.916C351.488 404.887 351.131 404.155 350.419 403.719C349.716 403.284 348.622 403.066 347.138 403.066ZM395.773 399.295L390.251 421H385.01L382.07 409.598C382.011 409.381 381.932 409.049 381.833 408.604C381.734 408.158 381.63 407.673 381.521 407.149C381.412 406.614 381.313 406.114 381.224 405.649C381.145 405.174 381.091 404.798 381.061 404.521C381.031 404.798 380.972 405.169 380.883 405.634C380.804 406.1 380.71 406.594 380.601 407.119C380.502 407.644 380.403 408.133 380.304 408.589C380.205 409.044 380.126 409.39 380.066 409.628L377.142 421H371.916L366.378 399.295H370.906L373.682 411.142C373.762 411.499 373.851 411.924 373.95 412.419C374.059 412.914 374.162 413.434 374.261 413.978C374.37 414.512 374.464 415.032 374.544 415.537C374.633 416.032 374.697 416.462 374.737 416.828C374.786 416.452 374.85 416.017 374.93 415.522C375.009 415.017 375.093 414.507 375.182 413.993C375.281 413.468 375.38 412.983 375.479 412.538C375.578 412.092 375.667 411.731 375.746 411.454L378.908 399.295H383.258L386.42 411.454C386.49 411.721 386.569 412.083 386.658 412.538C386.757 412.983 386.856 413.468 386.955 413.993C387.054 414.517 387.143 415.032 387.222 415.537C387.311 416.032 387.375 416.462 387.415 416.828C387.484 416.333 387.578 415.735 387.697 415.032C387.826 414.319 387.959 413.612 388.098 412.909C388.246 412.206 388.375 411.617 388.484 411.142L391.245 399.295H395.773ZM411.005 421H398.505V399.295H411.005V403.066H403.107V407.832H410.456V411.603H403.107V417.199H411.005V421ZM428.835 421L427.262 415.834H419.349L417.775 421H412.816L420.477 399.206H426.104L433.794 421H428.835ZM426.163 411.974L424.589 406.926C424.49 406.59 424.357 406.159 424.188 405.634C424.03 405.1 423.867 404.561 423.699 404.016C423.54 403.462 423.412 402.982 423.313 402.576C423.214 402.982 423.075 403.487 422.897 404.09C422.729 404.684 422.565 405.248 422.407 405.783C422.249 406.317 422.135 406.698 422.065 406.926L420.507 411.974H426.163ZM436.54 421V399.295H441.143V417.199H449.946V421H436.54ZM462.105 421H457.503V403.125H451.609V399.295H467.999V403.125H462.105V421ZM489.125 421H484.537V411.632H475.941V421H471.339V399.295H475.941V407.802H484.537V399.295H489.125V421Z" fill="#38A343"/>
<defs>
<linearGradient id="paint0_linear_162_28" x1="237" y1="101.523" x2="237" y2="134.523" gradientUnits="userSpaceOnUse">
<stop stop-color="#0A305B"/>
<stop offset="1" stop-color="#1566C1"/>
</linearGradient>
<linearGradient id="paint1_linear_162_28" x1="277" y1="59.5227" x2="277" y2="127.023" gradientUnits="userSpaceOnUse">
<stop stop-color="#0A305B"/>
<stop offset="1" stop-color="#1566C1"/>
</linearGradient>
<linearGradient id="paint2_linear_162_28" x1="315" y1="20.5227" x2="315" y2="120.023" gradientUnits="userSpaceOnUse">
<stop stop-color="#0A305B"/>
<stop offset="1" stop-color="#1566C1"/>
</linearGradient>
<linearGradient id="paint3_linear_162_28" x1="238.729" y1="144.996" x2="238.729" y2="194" gradientUnits="userSpaceOnUse">
<stop stop-color="#153D19"/>
<stop offset="1" stop-color="#38A343"/>
</linearGradient>
<linearGradient id="paint4_linear_162_28" x1="278.87" y1="138.996" x2="278.87" y2="188" gradientUnits="userSpaceOnUse">
<stop stop-color="#153D19"/>
<stop offset="1" stop-color="#38A343"/>
</linearGradient>
<linearGradient id="paint5_linear_162_28" x1="319.51" y1="130.996" x2="319.51" y2="180" gradientUnits="userSpaceOnUse">
<stop stop-color="#153D19"/>
<stop offset="1" stop-color="#38A343"/>
</linearGradient>
<linearGradient id="paint6_linear_162_28" x1="267.866" y1="155" x2="267.866" y2="272.5" gradientUnits="userSpaceOnUse">
<stop stop-color="#163B19"/>
<stop offset="1" stop-color="#3DA144"/>
</linearGradient>
</defs>
</svg>
